<svg xmlns="http://www.w3.org/2000/svg" xmlns:xlink="http://www.w3.org/1999/xlink" width="1366" zoomAndPan="magnify" viewBox="0 0 1024.5 1022.999952" height="768" preserveAspectRatio="xMidYMid meet" version="1.0"><defs><clipPath id="bf9d17f130"><path d="M 0 0.25 L 1024 0.25 L 1024 1022.75 L 0 1022.75 Z M 0 0.25 " clip-rule="nonzero"/></clipPath></defs><g clip-path="url(#bf9d17f130)"><path fill="#40f2fe" d="M 347.429688 0.25 C 297.046875 0.25 256 41.296875 256 91.679688 L 256 365.964844 L 70.382812 365.964844 C 31.617188 365.964844 0 397.867188 0 436.726562 L 0 734.058594 C 0 772.917969 31.617188 804.820312 70.382812 804.820312 L 256 804.820312 L 256 932.820312 C 256 983.203125 297.046875 1024.25 347.429688 1024.25 L 932.570312 1024.25 C 982.953125 1024.25 1024 983.203125 1024 932.820312 L 1024 292.820312 C 1024 276.15625 1017.238281 260.441406 1005.808594 248.820312 L 781.046875 18.628906 C 769.332031 6.628906 753.238281 0.25 736.761719 0.25 Z M 347.429688 36.820312 L 731.429688 36.820312 L 731.429688 219.679688 C 731.429688 259.867188 764.382812 292.820312 804.570312 292.820312 L 987.429688 292.820312 L 987.429688 932.820312 C 987.429688 963.488281 963.238281 987.679688 932.570312 987.679688 L 347.429688 987.679688 C 316.761719 987.679688 292.570312 963.488281 292.570312 932.820312 L 292.570312 804.820312 L 661.046875 804.820312 C 699.808594 804.820312 731.429688 772.917969 731.429688 734.058594 L 731.429688 436.726562 C 731.429688 397.867188 699.808594 365.964844 661.046875 365.964844 L 292.570312 365.964844 L 292.570312 91.679688 C 292.570312 61.011719 316.761719 36.820312 347.429688 36.820312 Z M 768 57.679688 L 962 256.25 L 804.570312 256.25 C 784 256.25 768 240.25 768 219.679688 Z M 70.382812 402.535156 L 661.046875 402.535156 C 680 402.535156 694.855469 417.390625 694.855469 436.726562 L 694.855469 734.058594 C 694.855469 753.390625 680 768.25 661.046875 768.25 L 70.382812 768.25 C 51.429688 768.25 36.570312 753.390625 36.570312 734.058594 L 36.570312 436.726562 C 36.570312 417.390625 51.429688 402.535156 70.382812 402.535156 Z M 70.382812 402.535156 " fill-opacity="1" fill-rule="nonzero"/></g><path fill="#000000" d="M 128 475.679688 C 117.90625 475.679688 109.714844 483.867188 109.714844 493.964844 C 109.714844 554.917969 109.714844 615.867188 109.714844 676.820312 C 109.714844 686.917969 117.90625 695.105469 128 695.105469 C 138.09375 695.105469 146.285156 686.917969 146.285156 676.820312 L 146.285156 621.964844 L 182.855469 621.964844 C 223.046875 621.964844 256 589.011719 256 548.820312 C 256 508.628906 223.046875 475.679688 182.855469 475.679688 Z M 146.285156 512.25 L 182.855469 512.25 C 203.429688 512.25 219.429688 528.25 219.429688 548.820312 C 219.429688 569.390625 203.429688 585.390625 182.855469 585.390625 L 146.285156 585.390625 Z M 146.285156 512.25 " fill-opacity="1" fill-rule="nonzero"/><path fill="#000000" d="M 310.855469 475.679688 C 300.761719 475.679688 292.570312 483.867188 292.570312 493.964844 L 292.570312 676.820312 C 292.570312 686.917969 300.761719 695.105469 310.855469 695.105469 L 326.570312 695.105469 C 388.191406 695.105469 438.855469 646.15625 438.855469 585.390625 C 438.855469 524.628906 388.191406 475.679688 326.570312 475.679688 Z M 329.144531 512.726562 C 370.382812 514.15625 402.285156 545.679688 402.285156 585.390625 C 402.285156 625.105469 370.382812 656.628906 329.144531 658.058594 Z M 329.144531 512.726562 " fill-opacity="1" fill-rule="nonzero"/><path fill="#000000" d="M 493.714844 475.679688 C 483.621094 475.679688 475.429688 483.867188 475.429688 493.964844 C 475.429688 554.917969 475.429688 615.867188 475.429688 676.820312 C 475.429688 686.917969 483.621094 695.105469 493.714844 695.105469 C 503.808594 695.105469 512 686.917969 512 676.820312 L 512 601.296875 L 603.429688 601.296875 C 613.523438 601.296875 621.714844 593.105469 621.714844 583.011719 C 621.714844 572.917969 613.523438 564.726562 603.429688 564.726562 L 512 564.726562 L 512 512.25 L 603.429688 512.25 C 613.523438 512.25 621.714844 504.058594 621.714844 493.964844 C 621.714844 483.867188 613.523438 475.679688 603.429688 475.679688 Z M 493.714844 475.679688 " fill-opacity="1" fill-rule="nonzero"/></svg>