<svg xmlns="http://www.w3.org/2000/svg" xmlns:xlink="http://www.w3.org/1999/xlink" width="1366" zoomAndPan="magnify" viewBox="0 0 1024.5 1277.99994" height="768" preserveAspectRatio="xMidYMid meet" version="1.0"><defs><clipPath id="591e19e849"><path d="M 0 0.3125 L 1024 0.3125 L 1024 1277.6875 L 0 1277.6875 Z M 0 0.3125 " clip-rule="nonzero"/></clipPath></defs><g clip-path="url(#591e19e849)"><path fill="#000000" d="M 761.753906 6.5625 C 760.761719 5.570312 759.683594 4.6875 758.519531 3.90625 C 757.355469 3.128906 756.125 2.472656 754.832031 1.9375 C 753.535156 1.398438 752.203125 0.996094 750.828125 0.722656 C 749.453125 0.449219 748.066406 0.3125 746.667969 0.3125 L 149.332031 0.3125 C 146.890625 0.3125 144.449219 0.378906 142.007812 0.5 C 139.566406 0.621094 137.132812 0.804688 134.703125 1.046875 C 132.269531 1.289062 129.847656 1.589844 127.429688 1.949219 C 125.011719 2.3125 122.605469 2.730469 120.210938 3.210938 C 117.816406 3.6875 115.433594 4.226562 113.0625 4.820312 C 110.695312 5.417969 108.339844 6.070312 106.003906 6.78125 C 103.664062 7.492188 101.347656 8.261719 99.046875 9.085938 C 96.746094 9.910156 94.46875 10.789062 92.210938 11.726562 C 89.957031 12.664062 87.722656 13.65625 85.515625 14.699219 C 83.308594 15.746094 81.125 16.847656 78.972656 18 C 76.816406 19.152344 74.691406 20.355469 72.597656 21.613281 C 70.503906 22.871094 68.4375 24.179688 66.40625 25.539062 C 64.375 26.894531 62.378906 28.304688 60.417969 29.757812 C 58.457031 31.214844 56.53125 32.71875 54.640625 34.269531 C 52.753906 35.820312 50.90625 37.417969 49.09375 39.058594 C 47.285156 40.699219 45.515625 42.382812 43.789062 44.113281 C 42.058594 45.839844 40.375 47.609375 38.734375 49.421875 C 37.09375 51.230469 35.5 53.082031 33.949219 54.96875 C 32.398438 56.859375 30.894531 58.785156 29.4375 60.746094 C 27.984375 62.710938 26.578125 64.707031 25.21875 66.738281 C 23.859375 68.769531 22.554688 70.835938 21.296875 72.929688 C 20.039062 75.027344 18.835938 77.152344 17.683594 79.304688 C 16.53125 81.460938 15.429688 83.644531 14.386719 85.851562 C 13.339844 88.058594 12.347656 90.292969 11.414062 92.550781 C 10.476562 94.808594 9.59375 97.085938 8.769531 99.386719 C 7.945312 101.6875 7.179688 104.007812 6.46875 106.34375 C 5.757812 108.683594 5.105469 111.039062 4.507812 113.40625 C 3.914062 115.777344 3.375 118.160156 2.898438 120.558594 C 2.417969 122.953125 2 125.363281 1.636719 127.777344 C 1.277344 130.195312 0.976562 132.621094 0.734375 135.050781 C 0.492188 137.484375 0.308594 139.921875 0.1875 142.363281 C 0.0664062 144.800781 0.00390625 147.246094 0 149.6875 L 0 1131.308594 C 0.00390625 1133.753906 0.0664062 1136.195312 0.1875 1138.636719 C 0.308594 1141.078125 0.492188 1143.515625 0.734375 1145.945312 C 0.976562 1148.378906 1.277344 1150.800781 1.636719 1153.21875 C 2 1155.636719 2.417969 1158.042969 2.898438 1160.441406 C 3.375 1162.835938 3.914062 1165.21875 4.507812 1167.589844 C 5.105469 1169.960938 5.757812 1172.316406 6.46875 1174.652344 C 7.179688 1176.992188 7.945312 1179.308594 8.769531 1181.609375 C 9.59375 1183.910156 10.476562 1186.191406 11.414062 1188.449219 C 12.347656 1190.707031 13.339844 1192.9375 14.386719 1195.148438 C 15.429688 1197.355469 16.53125 1199.539062 17.683594 1201.691406 C 18.835938 1203.847656 20.039062 1205.972656 21.296875 1208.066406 C 22.554688 1210.164062 23.859375 1212.226562 25.21875 1214.257812 C 26.578125 1216.292969 27.984375 1218.289062 29.4375 1220.25 C 30.894531 1222.214844 32.398438 1224.140625 33.949219 1226.027344 C 35.5 1227.917969 37.09375 1229.765625 38.734375 1231.578125 C 40.375 1233.386719 42.058594 1235.15625 43.789062 1236.886719 C 45.515625 1238.613281 47.285156 1240.300781 49.09375 1241.941406 C 50.90625 1243.582031 52.753906 1245.175781 54.640625 1246.726562 C 56.53125 1248.277344 58.457031 1249.78125 60.417969 1251.238281 C 62.378906 1252.695312 64.375 1254.101562 66.40625 1255.460938 C 68.4375 1256.820312 70.503906 1258.125 72.597656 1259.382812 C 74.691406 1260.640625 76.816406 1261.847656 78.972656 1263 C 81.125 1264.152344 83.308594 1265.25 85.515625 1266.296875 C 87.722656 1267.34375 89.957031 1268.335938 92.210938 1269.269531 C 94.46875 1270.207031 96.746094 1271.089844 99.046875 1271.914062 C 101.347656 1272.738281 103.664062 1273.507812 106.003906 1274.21875 C 108.339844 1274.929688 110.695312 1275.582031 113.0625 1276.175781 C 115.433594 1276.773438 117.816406 1277.308594 120.210938 1277.789062 C 122.605469 1278.269531 125.011719 1278.6875 127.429688 1279.046875 C 129.847656 1279.410156 132.269531 1279.710938 134.703125 1279.953125 C 137.132812 1280.195312 139.566406 1280.375 142.007812 1280.5 C 144.449219 1280.621094 146.890625 1280.683594 149.332031 1280.6875 L 874.667969 1280.6875 C 877.109375 1280.683594 879.550781 1280.621094 881.992188 1280.5 C 884.433594 1280.375 886.867188 1280.195312 889.296875 1279.953125 C 891.730469 1279.710938 894.152344 1279.410156 896.570312 1279.046875 C 898.988281 1278.6875 901.394531 1278.269531 903.789062 1277.789062 C 906.183594 1277.308594 908.566406 1276.773438 910.9375 1276.175781 C 913.304688 1275.582031 915.660156 1274.929688 917.996094 1274.21875 C 920.335938 1273.507812 922.652344 1272.738281 924.953125 1271.914062 C 927.253906 1271.089844 929.53125 1270.207031 931.789062 1269.269531 C 934.046875 1268.335938 936.277344 1267.34375 938.484375 1266.296875 C 940.695312 1265.25 942.875 1264.152344 945.027344 1263 C 947.183594 1261.847656 949.308594 1260.640625 951.402344 1259.382812 C 953.5 1258.125 955.5625 1256.820312 957.59375 1255.460938 C 959.625 1254.101562 961.621094 1252.695312 963.582031 1251.238281 C 965.542969 1249.78125 967.46875 1248.277344 969.359375 1246.726562 C 971.246094 1245.175781 973.09375 1243.582031 974.90625 1241.941406 C 976.714844 1240.300781 978.484375 1238.613281 980.210938 1236.886719 C 981.941406 1235.15625 983.625 1233.386719 985.265625 1231.578125 C 986.90625 1229.765625 988.5 1227.917969 990.050781 1226.027344 C 991.601562 1224.140625 993.105469 1222.214844 994.5625 1220.25 C 996.015625 1218.289062 997.421875 1216.292969 998.78125 1214.257812 C 1000.140625 1212.226562 1001.445312 1210.164062 1002.703125 1208.066406 C 1003.960938 1205.972656 1005.164062 1203.847656 1006.316406 1201.691406 C 1007.46875 1199.539062 1008.570312 1197.355469 1009.613281 1195.148438 C 1010.660156 1192.9375 1011.652344 1190.707031 1012.589844 1188.449219 C 1013.523438 1186.191406 1014.40625 1183.910156 1015.230469 1181.609375 C 1016.054688 1179.308594 1016.820312 1176.992188 1017.53125 1174.652344 C 1018.242188 1172.316406 1018.894531 1169.960938 1019.492188 1167.589844 C 1020.085938 1165.21875 1020.625 1162.835938 1021.101562 1160.441406 C 1021.582031 1158.042969 1022 1155.636719 1022.363281 1153.21875 C 1022.722656 1150.800781 1023.023438 1148.378906 1023.265625 1145.945312 C 1023.507812 1143.515625 1023.691406 1141.078125 1023.8125 1138.636719 C 1023.933594 1136.195312 1023.996094 1133.753906 1024 1131.308594 L 1024 277.726562 C 1024 276.324219 1023.863281 274.9375 1023.589844 273.5625 C 1023.316406 272.1875 1022.914062 270.855469 1022.375 269.558594 C 1021.839844 268.265625 1021.183594 267.035156 1020.40625 265.871094 C 1019.628906 264.707031 1018.742188 263.628906 1017.753906 262.636719 Z M 768 73.167969 L 951.164062 256.386719 L 874.667969 256.386719 C 872.921875 256.382812 871.175781 256.339844 869.433594 256.253906 C 867.691406 256.164062 865.953125 256.035156 864.214844 255.863281 C 862.480469 255.6875 860.746094 255.472656 859.023438 255.214844 C 857.296875 254.957031 855.578125 254.660156 853.867188 254.316406 C 852.152344 253.976562 850.453125 253.589844 848.757812 253.164062 C 847.066406 252.738281 845.386719 252.273438 843.714844 251.765625 C 842.046875 251.257812 840.390625 250.710938 838.746094 250.121094 C 837.105469 249.53125 835.476562 248.902344 833.867188 248.234375 C 832.253906 247.5625 830.660156 246.855469 829.082031 246.109375 C 827.503906 245.363281 825.945312 244.574219 824.40625 243.753906 C 822.871094 242.929688 821.351562 242.066406 819.855469 241.171875 C 818.359375 240.273438 816.886719 239.339844 815.433594 238.367188 C 813.984375 237.398438 812.558594 236.394531 811.15625 235.351562 C 809.753906 234.3125 808.378906 233.238281 807.03125 232.128906 C 805.679688 231.023438 804.359375 229.882812 803.066406 228.710938 C 801.773438 227.539062 800.511719 226.335938 799.277344 225.101562 C 798.042969 223.867188 796.839844 222.601562 795.667969 221.308594 C 794.496094 220.015625 793.355469 218.695312 792.25 217.34375 C 791.140625 215.996094 790.066406 214.621094 789.027344 213.21875 C 787.988281 211.816406 786.984375 210.390625 786.011719 208.9375 C 785.042969 207.488281 784.109375 206.011719 783.210938 204.515625 C 782.3125 203.019531 781.453125 201.5 780.628906 199.960938 C 779.808594 198.421875 779.023438 196.863281 778.273438 195.285156 C 777.527344 193.710938 776.820312 192.113281 776.152344 190.5 C 775.484375 188.890625 774.855469 187.261719 774.265625 185.617188 C 773.675781 183.976562 773.128906 182.316406 772.621094 180.648438 C 772.113281 178.976562 771.644531 177.296875 771.21875 175.601562 C 770.796875 173.910156 770.410156 172.207031 770.070312 170.496094 C 769.726562 168.785156 769.429688 167.066406 769.171875 165.339844 C 768.914062 163.613281 768.699219 161.878906 768.523438 160.144531 C 768.351562 158.40625 768.222656 156.664062 768.132812 154.921875 C 768.046875 153.179688 768.003906 151.433594 768 149.6875 Z M 149.332031 42.992188 L 725.332031 42.992188 L 725.332031 149.6875 C 725.335938 152.132812 725.398438 154.574219 725.519531 157.015625 C 725.644531 159.457031 725.824219 161.894531 726.066406 164.324219 C 726.308594 166.757812 726.609375 169.179688 726.972656 171.597656 C 727.332031 174.015625 727.75 176.421875 728.230469 178.820312 C 728.710938 181.214844 729.246094 183.597656 729.84375 185.96875 C 730.4375 188.339844 731.089844 190.695312 731.800781 193.03125 C 732.511719 195.371094 733.28125 197.6875 734.105469 199.988281 C 734.929688 202.289062 735.808594 204.570312 736.746094 206.828125 C 737.683594 209.085938 738.671875 211.316406 739.71875 213.527344 C 740.765625 215.734375 741.863281 217.917969 743.015625 220.070312 C 744.167969 222.226562 745.375 224.351562 746.628906 226.449219 C 747.886719 228.542969 749.195312 230.605469 750.550781 232.636719 C 751.910156 234.671875 753.316406 236.667969 754.773438 238.628906 C 756.230469 240.59375 757.730469 242.519531 759.28125 244.40625 C 760.832031 246.296875 762.425781 248.144531 764.070312 249.957031 C 765.710938 251.769531 767.394531 253.535156 769.121094 255.265625 C 770.847656 256.992188 772.617188 258.679688 774.429688 260.320312 C 776.238281 261.960938 778.085938 263.558594 779.976562 265.105469 C 781.863281 266.65625 783.789062 268.160156 785.75 269.617188 C 787.714844 271.074219 789.710938 272.480469 791.742188 273.839844 C 793.773438 275.199219 795.835938 276.503906 797.929688 277.761719 C 800.027344 279.019531 802.148438 280.226562 804.304688 281.378906 C 806.457031 282.53125 808.640625 283.628906 810.847656 284.675781 C 813.054688 285.722656 815.289062 286.714844 817.546875 287.648438 C 819.800781 288.585938 822.082031 289.46875 824.378906 290.292969 C 826.679688 291.117188 829 291.886719 831.335938 292.597656 C 833.675781 293.308594 836.027344 293.960938 838.398438 294.554688 C 840.765625 295.152344 843.148438 295.6875 845.546875 296.167969 C 847.941406 296.648438 850.347656 297.066406 852.761719 297.425781 C 855.179688 297.789062 857.605469 298.089844 860.035156 298.332031 C 862.464844 298.574219 864.902344 298.753906 867.34375 298.878906 C 869.78125 299 872.222656 299.0625 874.667969 299.066406 L 981.332031 299.066406 L 981.332031 896.574219 L 42.667969 896.574219 L 42.667969 149.6875 C 42.667969 147.941406 42.714844 146.199219 42.800781 144.457031 C 42.886719 142.710938 43.019531 140.972656 43.191406 139.234375 C 43.363281 137.496094 43.578125 135.765625 43.835938 134.039062 C 44.09375 132.3125 44.394531 130.59375 44.734375 128.882812 C 45.078125 127.167969 45.460938 125.46875 45.886719 123.773438 C 46.3125 122.082031 46.777344 120.398438 47.285156 118.730469 C 47.792969 117.058594 48.34375 115.402344 48.933594 113.757812 C 49.519531 112.117188 50.148438 110.488281 50.816406 108.875 C 51.488281 107.261719 52.195312 105.667969 52.941406 104.089844 C 53.6875 102.511719 54.472656 100.953125 55.296875 99.414062 C 56.121094 97.875 56.980469 96.359375 57.878906 94.859375 C 58.777344 93.363281 59.710938 91.890625 60.679688 90.4375 C 61.648438 88.988281 62.65625 87.5625 63.695312 86.160156 C 64.734375 84.757812 65.808594 83.382812 66.914062 82.03125 C 68.023438 80.683594 69.164062 79.363281 70.335938 78.070312 C 71.507812 76.773438 72.710938 75.511719 73.945312 74.277344 C 75.175781 73.042969 76.441406 71.839844 77.734375 70.667969 C 79.027344 69.496094 80.347656 68.355469 81.695312 67.246094 C 83.046875 66.140625 84.421875 65.066406 85.824219 64.023438 C 87.222656 62.984375 88.648438 61.980469 90.101562 61.007812 C 91.550781 60.039062 93.023438 59.105469 94.523438 58.207031 C 96.019531 57.308594 97.535156 56.449219 99.074219 55.625 C 100.613281 54.800781 102.171875 54.015625 103.75 53.269531 C 105.324219 52.523438 106.921875 51.8125 108.53125 51.144531 C 110.144531 50.476562 111.773438 49.847656 113.414062 49.257812 C 115.058594 48.667969 116.714844 48.121094 118.382812 47.613281 C 120.050781 47.105469 121.734375 46.636719 123.425781 46.210938 C 125.117188 45.785156 126.820312 45.402344 128.53125 45.0625 C 130.242188 44.71875 131.960938 44.417969 133.6875 44.160156 C 135.414062 43.902344 137.144531 43.6875 138.882812 43.515625 C 140.617188 43.34375 142.359375 43.210938 144.101562 43.125 C 145.84375 43.039062 147.589844 42.992188 149.332031 42.992188 Z M 874.667969 1238.007812 L 149.332031 1238.007812 C 147.589844 1238.003906 145.84375 1237.960938 144.101562 1237.875 C 142.359375 1237.785156 140.617188 1237.65625 138.882812 1237.484375 C 137.144531 1237.308594 135.414062 1237.09375 133.6875 1236.835938 C 131.960938 1236.578125 130.242188 1236.28125 128.53125 1235.9375 C 126.820312 1235.59375 125.117188 1235.210938 123.425781 1234.785156 C 121.734375 1234.359375 120.050781 1233.894531 118.382812 1233.386719 C 116.714844 1232.878906 115.058594 1232.328125 113.414062 1231.742188 C 111.773438 1231.152344 110.144531 1230.523438 108.53125 1229.855469 C 106.921875 1229.183594 105.324219 1228.476562 103.75 1227.730469 C 102.171875 1226.980469 100.613281 1226.195312 99.074219 1225.375 C 97.535156 1224.550781 96.019531 1223.6875 94.523438 1222.792969 C 93.023438 1221.894531 91.550781 1220.960938 90.101562 1219.988281 C 88.648438 1219.019531 87.222656 1218.011719 85.824219 1216.972656 C 84.421875 1215.933594 83.046875 1214.859375 81.695312 1213.75 C 80.347656 1212.644531 79.027344 1211.503906 77.734375 1210.332031 C 76.441406 1209.160156 75.175781 1207.957031 73.945312 1206.722656 C 72.710938 1205.488281 71.507812 1204.222656 70.335938 1202.929688 C 69.164062 1201.636719 68.023438 1200.316406 66.914062 1198.964844 C 65.808594 1197.617188 64.734375 1196.242188 63.695312 1194.839844 C 62.65625 1193.4375 61.648438 1192.011719 60.679688 1190.558594 C 59.710938 1189.109375 58.777344 1187.632812 57.878906 1186.136719 C 56.980469 1184.640625 56.121094 1183.121094 55.296875 1181.582031 C 54.472656 1180.042969 53.6875 1178.484375 52.941406 1176.90625 C 52.195312 1175.328125 51.488281 1173.734375 50.816406 1172.121094 C 50.148438 1170.511719 49.519531 1168.882812 48.933594 1167.238281 C 48.34375 1165.597656 47.792969 1163.9375 47.285156 1162.269531 C 46.777344 1160.597656 46.3125 1158.917969 45.886719 1157.222656 C 45.460938 1155.53125 45.078125 1153.828125 44.734375 1152.117188 C 44.394531 1150.40625 44.09375 1148.6875 43.835938 1146.960938 C 43.578125 1145.234375 43.363281 1143.5 43.191406 1141.765625 C 43.019531 1140.027344 42.886719 1138.285156 42.800781 1136.542969 C 42.714844 1134.800781 42.667969 1133.054688 42.667969 1131.308594 L 42.667969 939.253906 L 981.332031 939.253906 L 981.332031 1131.308594 C 981.332031 1133.054688 981.285156 1134.800781 981.199219 1136.542969 C 981.113281 1138.285156 980.980469 1140.027344 980.808594 1141.765625 C 980.636719 1143.5 980.421875 1145.234375 980.164062 1146.960938 C 979.90625 1148.6875 979.605469 1150.40625 979.265625 1152.117188 C 978.921875 1153.828125 978.539062 1155.53125 978.113281 1157.222656 C 977.6875 1158.917969 977.222656 1160.597656 976.714844 1162.269531 C 976.207031 1163.9375 975.65625 1165.59375 975.070312 1167.238281 C 974.480469 1168.882812 973.851562 1170.511719 973.183594 1172.121094 C 972.511719 1173.734375 971.804688 1175.328125 971.058594 1176.90625 C 970.3125 1178.484375 969.527344 1180.042969 968.703125 1181.582031 C 967.878906 1183.121094 967.019531 1184.640625 966.121094 1186.136719 C 965.222656 1187.632812 964.289062 1189.109375 963.320312 1190.558594 C 962.351562 1192.011719 961.34375 1193.4375 960.304688 1194.839844 C 959.265625 1196.242188 958.191406 1197.617188 957.085938 1198.964844 C 955.976562 1200.316406 954.835938 1201.636719 953.664062 1202.929688 C 952.492188 1204.222656 951.289062 1205.488281 950.058594 1206.722656 C 948.824219 1207.957031 947.558594 1209.160156 946.265625 1210.332031 C 944.972656 1211.503906 943.652344 1212.644531 942.304688 1213.75 C 940.953125 1214.859375 939.578125 1215.933594 938.175781 1216.972656 C 936.777344 1218.011719 935.351562 1219.019531 933.898438 1219.988281 C 932.449219 1220.960938 930.976562 1221.894531 929.476562 1222.792969 C 927.980469 1223.6875 926.464844 1224.550781 924.925781 1225.375 C 923.386719 1226.195312 921.828125 1226.980469 920.25 1227.730469 C 918.675781 1228.476562 917.078125 1229.183594 915.46875 1229.855469 C 913.855469 1230.523438 912.230469 1231.152344 910.585938 1231.742188 C 908.941406 1232.328125 907.285156 1232.878906 905.617188 1233.386719 C 903.949219 1233.894531 902.265625 1234.359375 900.574219 1234.785156 C 898.882812 1235.210938 897.179688 1235.59375 895.46875 1235.9375 C 893.757812 1236.28125 892.039062 1236.578125 890.3125 1236.835938 C 888.585938 1237.09375 886.855469 1237.308594 885.117188 1237.484375 C 883.382812 1237.65625 881.640625 1237.785156 879.898438 1237.875 C 878.15625 1237.960938 876.410156 1238.003906 874.667969 1238.007812 Z M 874.667969 1238.007812 " fill-opacity="1" fill-rule="nonzero"/></g><path fill="#40f2fe" d="M 469.332031 1152.648438 L 405.332031 1152.648438 L 405.332031 1003.273438 C 405.332031 1002.574219 405.300781 1001.875 405.230469 1001.179688 C 405.164062 1000.484375 405.058594 999.792969 404.921875 999.109375 C 404.789062 998.421875 404.617188 997.746094 404.414062 997.078125 C 404.210938 996.410156 403.976562 995.75 403.710938 995.105469 C 403.441406 994.460938 403.144531 993.828125 402.8125 993.210938 C 402.484375 992.597656 402.125 991.996094 401.738281 991.417969 C 401.351562 990.835938 400.933594 990.273438 400.492188 989.734375 C 400.046875 989.195312 399.578125 988.675781 399.085938 988.183594 C 398.589844 987.6875 398.074219 987.21875 397.535156 986.777344 C 396.992188 986.332031 396.433594 985.917969 395.851562 985.527344 C 395.269531 985.140625 394.671875 984.78125 394.054688 984.453125 C 393.441406 984.121094 392.808594 983.824219 392.164062 983.558594 C 391.519531 983.289062 390.863281 983.054688 390.191406 982.851562 C 389.523438 982.648438 388.847656 982.480469 388.160156 982.34375 C 387.476562 982.207031 386.785156 982.105469 386.089844 982.035156 C 385.394531 981.96875 384.699219 981.933594 384 981.933594 C 383.300781 981.933594 382.605469 981.96875 381.910156 982.035156 C 381.214844 982.105469 380.523438 982.207031 379.839844 982.34375 C 379.152344 982.480469 378.476562 982.648438 377.808594 982.851562 C 377.140625 983.054688 376.480469 983.289062 375.835938 983.558594 C 375.191406 983.824219 374.558594 984.121094 373.945312 984.453125 C 373.328125 984.78125 372.730469 985.140625 372.148438 985.527344 C 371.566406 985.917969 371.007812 986.332031 370.464844 986.777344 C 369.925781 987.21875 369.410156 987.6875 368.914062 988.183594 C 368.421875 988.675781 367.953125 989.195312 367.507812 989.734375 C 367.066406 990.273438 366.648438 990.835938 366.261719 991.417969 C 365.875 991.996094 365.515625 992.597656 365.1875 993.210938 C 364.855469 993.828125 364.558594 994.460938 364.289062 995.105469 C 364.023438 995.75 363.789062 996.410156 363.585938 997.078125 C 363.382812 997.746094 363.214844 998.421875 363.078125 999.109375 C 362.941406 999.792969 362.839844 1000.484375 362.769531 1001.179688 C 362.699219 1001.875 362.667969 1002.574219 362.667969 1003.273438 L 362.667969 1173.988281 C 362.667969 1174.6875 362.699219 1175.386719 362.769531 1176.082031 C 362.839844 1176.777344 362.941406 1177.464844 363.078125 1178.152344 C 363.214844 1178.835938 363.382812 1179.515625 363.585938 1180.183594 C 363.789062 1180.851562 364.023438 1181.507812 364.289062 1182.15625 C 364.558594 1182.800781 364.855469 1183.433594 365.1875 1184.046875 C 365.515625 1184.664062 365.875 1185.261719 366.261719 1185.84375 C 366.648438 1186.425781 367.066406 1186.984375 367.507812 1187.527344 C 367.953125 1188.066406 368.421875 1188.582031 368.914062 1189.078125 C 369.410156 1189.574219 369.925781 1190.042969 370.464844 1190.484375 C 371.007812 1190.929688 371.566406 1191.34375 372.148438 1191.730469 C 372.730469 1192.121094 373.328125 1192.480469 373.945312 1192.808594 C 374.558594 1193.136719 375.191406 1193.4375 375.835938 1193.703125 C 376.480469 1193.972656 377.140625 1194.207031 377.808594 1194.410156 C 378.476562 1194.613281 379.152344 1194.78125 379.839844 1194.917969 C 380.523438 1195.054688 381.214844 1195.15625 381.910156 1195.226562 C 382.605469 1195.292969 383.300781 1195.328125 384 1195.328125 L 469.332031 1195.328125 C 470.03125 1195.328125 470.730469 1195.292969 471.425781 1195.226562 C 472.121094 1195.15625 472.808594 1195.054688 473.496094 1194.917969 C 474.179688 1194.78125 474.859375 1194.613281 475.527344 1194.410156 C 476.195312 1194.207031 476.851562 1193.972656 477.496094 1193.703125 C 478.144531 1193.4375 478.773438 1193.136719 479.390625 1192.808594 C 480.007812 1192.480469 480.605469 1192.121094 481.1875 1191.730469 C 481.765625 1191.34375 482.328125 1190.929688 482.867188 1190.484375 C 483.40625 1190.042969 483.925781 1189.574219 484.417969 1189.078125 C 484.914062 1188.582031 485.382812 1188.066406 485.824219 1187.527344 C 486.269531 1186.984375 486.683594 1186.425781 487.070312 1185.84375 C 487.460938 1185.261719 487.820312 1184.664062 488.148438 1184.046875 C 488.476562 1183.433594 488.777344 1182.800781 489.042969 1182.15625 C 489.308594 1181.507812 489.546875 1180.851562 489.75 1180.183594 C 489.949219 1179.515625 490.121094 1178.835938 490.257812 1178.152344 C 490.394531 1177.464844 490.496094 1176.777344 490.5625 1176.082031 C 490.632812 1175.386719 490.667969 1174.6875 490.667969 1173.988281 C 490.667969 1173.289062 490.632812 1172.59375 490.5625 1171.898438 C 490.496094 1171.203125 490.394531 1170.511719 490.257812 1169.824219 C 490.121094 1169.140625 489.949219 1168.464844 489.75 1167.792969 C 489.546875 1167.125 489.308594 1166.46875 489.042969 1165.824219 C 488.777344 1165.175781 488.476562 1164.546875 488.148438 1163.929688 C 487.820312 1163.3125 487.460938 1162.714844 487.070312 1162.132812 C 486.683594 1161.550781 486.269531 1160.992188 485.824219 1160.449219 C 485.382812 1159.910156 484.914062 1159.394531 484.417969 1158.898438 C 483.925781 1158.40625 483.40625 1157.9375 482.867188 1157.492188 C 482.328125 1157.050781 481.765625 1156.632812 481.1875 1156.246094 C 480.605469 1155.855469 480.007812 1155.5 479.390625 1155.167969 C 478.773438 1154.839844 478.144531 1154.539062 477.496094 1154.273438 C 476.851562 1154.007812 476.195312 1153.769531 475.527344 1153.566406 C 474.859375 1153.363281 474.179688 1153.195312 473.496094 1153.058594 C 472.808594 1152.921875 472.121094 1152.820312 471.425781 1152.753906 C 470.730469 1152.683594 470.03125 1152.648438 469.332031 1152.648438 Z M 469.332031 1152.648438 " fill-opacity="1" fill-rule="nonzero"/><path fill="#000000" d="M 308.207031 984.1875 C 307.582031 983.875 306.945312 983.59375 306.292969 983.34375 C 305.640625 983.09375 304.976562 982.875 304.300781 982.691406 C 303.628906 982.507812 302.945312 982.355469 302.257812 982.238281 C 301.570312 982.121094 300.878906 982.035156 300.179688 981.988281 C 299.484375 981.9375 298.785156 981.921875 298.085938 981.941406 C 297.390625 981.960938 296.691406 982.011719 296 982.101562 C 295.304688 982.1875 294.621094 982.308594 293.9375 982.464844 C 293.257812 982.621094 292.585938 982.808594 291.921875 983.027344 C 291.257812 983.25 290.609375 983.503906 289.96875 983.785156 C 289.332031 984.070312 288.710938 984.386719 288.101562 984.734375 C 287.496094 985.078125 286.90625 985.453125 286.335938 985.859375 C 285.765625 986.261719 285.21875 986.691406 284.691406 987.152344 C 284.164062 987.609375 283.660156 988.089844 283.179688 988.597656 C 282.699219 989.105469 282.242188 989.636719 281.816406 990.1875 C 281.386719 990.742188 280.984375 991.3125 280.613281 991.902344 C 280.242188 992.496094 279.898438 993.101562 279.585938 993.726562 L 256 1040.914062 L 232.414062 993.726562 C 232.097656 993.109375 231.753906 992.503906 231.378906 991.921875 C 231.003906 991.335938 230.601562 990.769531 230.171875 990.222656 C 229.742188 989.675781 229.285156 989.152344 228.804688 988.648438 C 228.324219 988.148438 227.816406 987.671875 227.289062 987.21875 C 226.761719 986.765625 226.214844 986.339844 225.644531 985.941406 C 225.074219 985.542969 224.488281 985.171875 223.882812 984.828125 C 223.277344 984.488281 222.65625 984.175781 222.019531 983.898438 C 221.382812 983.617188 220.734375 983.367188 220.074219 983.148438 C 219.414062 982.933594 218.742188 982.746094 218.066406 982.597656 C 217.386719 982.445312 216.703125 982.324219 216.011719 982.242188 C 215.324219 982.15625 214.628906 982.105469 213.933594 982.089844 C 213.242188 982.070312 212.546875 982.085938 211.851562 982.136719 C 211.160156 982.1875 210.46875 982.273438 209.785156 982.390625 C 209.101562 982.507812 208.421875 982.660156 207.75 982.84375 C 207.082031 983.03125 206.421875 983.246094 205.773438 983.496094 C 205.125 983.742188 204.488281 984.023438 203.867188 984.335938 C 203.246094 984.644531 202.640625 984.988281 202.050781 985.355469 C 201.460938 985.726562 200.894531 986.125 200.34375 986.550781 C 199.792969 986.976562 199.265625 987.429688 198.761719 987.90625 C 198.253906 988.382812 197.773438 988.882812 197.316406 989.410156 C 196.863281 989.933594 196.429688 990.480469 196.027344 991.046875 C 195.625 991.613281 195.25 992.195312 194.90625 992.800781 C 194.558594 993.402344 194.242188 994.023438 193.957031 994.65625 C 193.671875 995.289062 193.417969 995.9375 193.195312 996.59375 C 192.972656 997.253906 192.78125 997.921875 192.625 998.597656 C 192.46875 999.277344 192.34375 999.960938 192.253906 1000.648438 C 192.164062 1001.339844 192.109375 1002.03125 192.085938 1002.726562 C 192.0625 1003.421875 192.074219 1004.117188 192.121094 1004.808594 C 192.164062 1005.503906 192.242188 1006.195312 192.355469 1006.878906 C 192.46875 1007.566406 192.617188 1008.246094 192.792969 1008.917969 C 192.972656 1009.589844 193.183594 1010.25 193.429688 1010.902344 C 193.671875 1011.554688 193.949219 1012.191406 194.253906 1012.816406 L 232.148438 1088.628906 L 194.253906 1164.445312 C 193.933594 1165.070312 193.648438 1165.710938 193.390625 1166.363281 C 193.136719 1167.019531 192.914062 1167.683594 192.722656 1168.359375 C 192.53125 1169.035156 192.375 1169.71875 192.253906 1170.410156 C 192.128906 1171.101562 192.042969 1171.800781 191.988281 1172.5 C 191.933594 1173.199219 191.914062 1173.902344 191.929688 1174.601562 C 191.945312 1175.304688 191.996094 1176.003906 192.082031 1176.703125 C 192.164062 1177.398438 192.28125 1178.089844 192.4375 1178.777344 C 192.589844 1179.460938 192.773438 1180.136719 192.992188 1180.804688 C 193.214844 1181.472656 193.464844 1182.128906 193.75 1182.769531 C 194.03125 1183.414062 194.347656 1184.039062 194.695312 1184.648438 C 195.039062 1185.261719 195.414062 1185.855469 195.820312 1186.429688 C 196.222656 1187.003906 196.65625 1187.554688 197.113281 1188.085938 C 197.574219 1188.617188 198.058594 1189.125 198.566406 1189.609375 C 199.074219 1190.09375 199.609375 1190.550781 200.160156 1190.980469 C 200.714844 1191.414062 201.289062 1191.816406 201.882812 1192.191406 C 202.476562 1192.566406 203.089844 1192.910156 203.71875 1193.222656 C 204.34375 1193.539062 204.988281 1193.820312 205.644531 1194.070312 C 206.300781 1194.320312 206.964844 1194.539062 207.644531 1194.722656 C 208.320312 1194.910156 209.003906 1195.058594 209.699219 1195.179688 C 210.390625 1195.296875 211.085938 1195.378906 211.785156 1195.425781 C 212.488281 1195.476562 213.1875 1195.488281 213.890625 1195.46875 C 214.59375 1195.445312 215.292969 1195.390625 215.988281 1195.300781 C 216.683594 1195.210938 217.375 1195.089844 218.058594 1194.929688 C 218.742188 1194.773438 219.417969 1194.582031 220.082031 1194.355469 C 220.75 1194.132812 221.402344 1193.875 222.039062 1193.585938 C 222.679688 1193.296875 223.304688 1192.976562 223.914062 1192.625 C 224.519531 1192.273438 225.109375 1191.894531 225.683594 1191.484375 C 226.253906 1191.078125 226.800781 1190.640625 227.328125 1190.175781 C 227.859375 1189.714844 228.359375 1189.226562 228.839844 1188.714844 C 229.320312 1188.199219 229.773438 1187.664062 230.199219 1187.105469 C 230.628906 1186.550781 231.023438 1185.972656 231.394531 1185.375 C 231.765625 1184.777344 232.105469 1184.164062 232.414062 1183.53125 L 256 1136.347656 L 279.585938 1183.53125 C 279.894531 1184.164062 280.234375 1184.777344 280.605469 1185.375 C 280.976562 1185.972656 281.371094 1186.550781 281.800781 1187.105469 C 282.226562 1187.664062 282.679688 1188.199219 283.160156 1188.714844 C 283.640625 1189.226562 284.144531 1189.714844 284.671875 1190.175781 C 285.199219 1190.640625 285.746094 1191.078125 286.316406 1191.484375 C 286.890625 1191.894531 287.480469 1192.273438 288.085938 1192.625 C 288.695312 1192.976562 289.320312 1193.296875 289.960938 1193.585938 C 290.597656 1193.875 291.25 1194.132812 291.917969 1194.355469 C 292.582031 1194.582031 293.257812 1194.773438 293.941406 1194.929688 C 294.625 1195.089844 295.316406 1195.210938 296.011719 1195.300781 C 296.707031 1195.390625 297.40625 1195.445312 298.109375 1195.46875 C 298.8125 1195.488281 299.511719 1195.476562 300.214844 1195.425781 C 300.914062 1195.378906 301.609375 1195.296875 302.300781 1195.179688 C 302.996094 1195.058594 303.679688 1194.910156 304.355469 1194.722656 C 305.035156 1194.539062 305.699219 1194.320312 306.355469 1194.070312 C 307.011719 1193.820312 307.65625 1193.539062 308.28125 1193.222656 C 308.910156 1192.910156 309.523438 1192.566406 310.117188 1192.191406 C 310.710938 1191.816406 311.285156 1191.414062 311.839844 1190.980469 C 312.390625 1190.550781 312.925781 1190.09375 313.433594 1189.609375 C 313.941406 1189.125 314.425781 1188.617188 314.886719 1188.085938 C 315.34375 1187.554688 315.777344 1187.003906 316.179688 1186.429688 C 316.585938 1185.855469 316.960938 1185.261719 317.304688 1184.652344 C 317.652344 1184.039062 317.96875 1183.414062 318.25 1182.769531 C 318.535156 1182.128906 318.785156 1181.472656 319.007812 1180.804688 C 319.226562 1180.136719 319.410156 1179.460938 319.5625 1178.777344 C 319.71875 1178.089844 319.835938 1177.398438 319.917969 1176.703125 C 320.003906 1176.003906 320.054688 1175.304688 320.070312 1174.601562 C 320.085938 1173.902344 320.066406 1173.199219 320.011719 1172.5 C 319.957031 1171.800781 319.871094 1171.101562 319.746094 1170.410156 C 319.625 1169.71875 319.46875 1169.035156 319.277344 1168.359375 C 319.085938 1167.683594 318.863281 1167.019531 318.609375 1166.363281 C 318.351562 1165.710938 318.066406 1165.070312 317.746094 1164.445312 L 279.851562 1088.628906 L 317.746094 1012.816406 C 318.058594 1012.191406 318.339844 1011.550781 318.589844 1010.898438 C 318.839844 1010.246094 319.058594 1009.582031 319.242188 1008.910156 C 319.425781 1008.234375 319.578125 1007.554688 319.695312 1006.863281 C 319.8125 1006.175781 319.894531 1005.484375 319.945312 1004.785156 C 319.996094 1004.089844 320.011719 1003.390625 319.992188 1002.691406 C 319.972656 1001.992188 319.917969 1001.296875 319.832031 1000.605469 C 319.746094 999.910156 319.625 999.222656 319.46875 998.542969 C 319.3125 997.859375 319.125 997.1875 318.90625 996.527344 C 318.683594 995.863281 318.429688 995.210938 318.144531 994.574219 C 317.863281 993.933594 317.546875 993.3125 317.199219 992.707031 C 316.855469 992.097656 316.480469 991.507812 316.074219 990.9375 C 315.671875 990.367188 315.242188 989.820312 314.78125 989.292969 C 314.324219 988.765625 313.84375 988.257812 313.335938 987.777344 C 312.828125 987.296875 312.296875 986.84375 311.746094 986.414062 C 311.195312 985.988281 310.625 985.585938 310.03125 985.214844 C 309.441406 984.839844 308.832031 984.5 308.207031 984.1875 Z M 308.207031 984.1875 " fill-opacity="1" fill-rule="nonzero"/><path fill="#000000" d="M 820.207031 984.1875 C 819.582031 983.875 818.945312 983.59375 818.292969 983.34375 C 817.640625 983.09375 816.976562 982.875 816.304688 982.691406 C 815.628906 982.507812 814.949219 982.355469 814.257812 982.238281 C 813.570312 982.121094 812.878906 982.035156 812.179688 981.988281 C 811.484375 981.9375 810.785156 981.921875 810.085938 981.941406 C 809.390625 981.960938 808.691406 982.011719 808 982.101562 C 807.308594 982.1875 806.621094 982.308594 805.9375 982.464844 C 805.257812 982.621094 804.585938 982.808594 803.921875 983.027344 C 803.257812 983.25 802.609375 983.503906 801.972656 983.785156 C 801.332031 984.070312 800.710938 984.386719 800.105469 984.734375 C 799.496094 985.078125 798.90625 985.453125 798.335938 985.859375 C 797.769531 986.261719 797.21875 986.691406 796.691406 987.152344 C 796.164062 987.609375 795.660156 988.089844 795.179688 988.597656 C 794.699219 989.105469 794.242188 989.636719 793.816406 990.1875 C 793.386719 990.742188 792.988281 991.3125 792.613281 991.902344 C 792.242188 992.496094 791.898438 993.101562 791.585938 993.726562 L 768 1040.914062 L 744.414062 993.726562 C 744.097656 993.109375 743.753906 992.503906 743.378906 991.921875 C 743.003906 991.335938 742.601562 990.769531 742.171875 990.222656 C 741.742188 989.675781 741.285156 989.152344 740.804688 988.648438 C 740.324219 988.148438 739.816406 987.671875 739.289062 987.21875 C 738.761719 986.765625 738.214844 986.339844 737.644531 985.941406 C 737.074219 985.542969 736.488281 985.171875 735.882812 984.828125 C 735.277344 984.488281 734.65625 984.175781 734.019531 983.898438 C 733.382812 983.617188 732.734375 983.367188 732.074219 983.148438 C 731.414062 982.933594 730.746094 982.746094 730.066406 982.597656 C 729.386719 982.445312 728.703125 982.324219 728.011719 982.242188 C 727.324219 982.15625 726.628906 982.105469 725.933594 982.089844 C 725.242188 982.070312 724.546875 982.085938 723.851562 982.136719 C 723.160156 982.1875 722.46875 982.273438 721.785156 982.390625 C 721.101562 982.507812 720.421875 982.660156 719.753906 982.84375 C 719.082031 983.03125 718.421875 983.246094 717.773438 983.496094 C 717.125 983.742188 716.488281 984.023438 715.867188 984.335938 C 715.246094 984.644531 714.640625 984.988281 714.050781 985.355469 C 713.460938 985.726562 712.894531 986.125 712.34375 986.550781 C 711.792969 986.976562 711.265625 987.429688 710.761719 987.90625 C 710.253906 988.382812 709.773438 988.882812 709.316406 989.410156 C 708.863281 989.933594 708.433594 990.480469 708.027344 991.046875 C 707.625 991.613281 707.25 992.195312 706.90625 992.800781 C 706.558594 993.402344 706.242188 994.023438 705.957031 994.65625 C 705.671875 995.289062 705.417969 995.9375 705.195312 996.59375 C 704.972656 997.253906 704.785156 997.921875 704.625 998.597656 C 704.46875 999.277344 704.34375 999.960938 704.253906 1000.648438 C 704.164062 1001.339844 704.109375 1002.03125 704.085938 1002.726562 C 704.0625 1003.421875 704.074219 1004.117188 704.121094 1004.808594 C 704.164062 1005.503906 704.242188 1006.195312 704.355469 1006.878906 C 704.46875 1007.566406 704.617188 1008.246094 704.792969 1008.917969 C 704.972656 1009.589844 705.183594 1010.25 705.429688 1010.902344 C 705.671875 1011.554688 705.949219 1012.191406 706.253906 1012.816406 L 744.148438 1088.628906 L 706.253906 1164.445312 C 705.933594 1165.070312 705.648438 1165.710938 705.390625 1166.363281 C 705.136719 1167.019531 704.914062 1167.683594 704.722656 1168.359375 C 704.53125 1169.035156 704.375 1169.71875 704.253906 1170.410156 C 704.132812 1171.101562 704.042969 1171.800781 703.988281 1172.5 C 703.933594 1173.199219 703.914062 1173.902344 703.929688 1174.601562 C 703.945312 1175.304688 703.996094 1176.003906 704.082031 1176.703125 C 704.164062 1177.398438 704.285156 1178.089844 704.4375 1178.777344 C 704.589844 1179.460938 704.773438 1180.136719 704.992188 1180.804688 C 705.214844 1181.472656 705.464844 1182.128906 705.75 1182.769531 C 706.035156 1183.414062 706.347656 1184.039062 706.695312 1184.648438 C 707.039062 1185.261719 707.414062 1185.855469 707.820312 1186.429688 C 708.222656 1187.003906 708.65625 1187.554688 709.113281 1188.085938 C 709.574219 1188.617188 710.058594 1189.125 710.566406 1189.609375 C 711.074219 1190.09375 711.609375 1190.550781 712.160156 1190.980469 C 712.714844 1191.414062 713.289062 1191.816406 713.882812 1192.191406 C 714.476562 1192.566406 715.089844 1192.910156 715.71875 1193.222656 C 716.34375 1193.539062 716.988281 1193.820312 717.644531 1194.070312 C 718.300781 1194.320312 718.964844 1194.539062 719.644531 1194.722656 C 720.320312 1194.910156 721.003906 1195.058594 721.699219 1195.179688 C 722.390625 1195.296875 723.085938 1195.378906 723.785156 1195.425781 C 724.488281 1195.476562 725.1875 1195.488281 725.890625 1195.46875 C 726.59375 1195.445312 727.292969 1195.390625 727.988281 1195.300781 C 728.683594 1195.210938 729.375 1195.089844 730.058594 1194.929688 C 730.742188 1194.773438 731.417969 1194.582031 732.082031 1194.355469 C 732.75 1194.132812 733.402344 1193.875 734.039062 1193.585938 C 734.679688 1193.296875 735.304688 1192.976562 735.914062 1192.625 C 736.523438 1192.273438 737.109375 1191.894531 737.683594 1191.484375 C 738.253906 1191.078125 738.800781 1190.640625 739.328125 1190.175781 C 739.859375 1189.714844 740.359375 1189.226562 740.839844 1188.714844 C 741.320312 1188.199219 741.773438 1187.664062 742.199219 1187.105469 C 742.628906 1186.550781 743.027344 1185.972656 743.394531 1185.375 C 743.765625 1184.777344 744.105469 1184.164062 744.414062 1183.53125 L 768 1136.347656 L 791.585938 1183.53125 C 791.894531 1184.164062 792.234375 1184.777344 792.605469 1185.375 C 792.976562 1185.972656 793.375 1186.550781 793.800781 1187.105469 C 794.226562 1187.664062 794.679688 1188.199219 795.160156 1188.714844 C 795.640625 1189.226562 796.144531 1189.714844 796.671875 1190.175781 C 797.199219 1190.640625 797.746094 1191.078125 798.316406 1191.484375 C 798.890625 1191.894531 799.480469 1192.273438 800.085938 1192.625 C 800.695312 1192.976562 801.320312 1193.296875 801.960938 1193.585938 C 802.597656 1193.875 803.253906 1194.132812 803.917969 1194.355469 C 804.582031 1194.582031 805.257812 1194.773438 805.941406 1194.929688 C 806.625 1195.089844 807.316406 1195.210938 808.011719 1195.300781 C 808.707031 1195.390625 809.40625 1195.445312 810.109375 1195.46875 C 810.8125 1195.488281 811.511719 1195.476562 812.214844 1195.425781 C 812.914062 1195.378906 813.609375 1195.296875 814.300781 1195.179688 C 814.996094 1195.058594 815.679688 1194.910156 816.355469 1194.722656 C 817.035156 1194.539062 817.699219 1194.320312 818.355469 1194.070312 C 819.011719 1193.820312 819.65625 1193.539062 820.28125 1193.222656 C 820.910156 1192.910156 821.523438 1192.566406 822.117188 1192.191406 C 822.710938 1191.816406 823.285156 1191.414062 823.839844 1190.980469 C 824.394531 1190.550781 824.925781 1190.09375 825.433594 1189.609375 C 825.941406 1189.125 826.425781 1188.617188 826.886719 1188.085938 C 827.34375 1187.554688 827.777344 1187.003906 828.179688 1186.429688 C 828.585938 1185.855469 828.960938 1185.261719 829.304688 1184.652344 C 829.652344 1184.039062 829.96875 1183.414062 830.25 1182.769531 C 830.535156 1182.128906 830.785156 1181.472656 831.007812 1180.804688 C 831.226562 1180.136719 831.410156 1179.460938 831.5625 1178.777344 C 831.71875 1178.089844 831.835938 1177.398438 831.917969 1176.703125 C 832.003906 1176.003906 832.054688 1175.304688 832.070312 1174.601562 C 832.085938 1173.902344 832.066406 1173.199219 832.011719 1172.5 C 831.957031 1171.800781 831.871094 1171.101562 831.746094 1170.410156 C 831.625 1169.71875 831.46875 1169.035156 831.277344 1168.359375 C 831.085938 1167.683594 830.863281 1167.019531 830.609375 1166.363281 C 830.351562 1165.710938 830.066406 1165.070312 829.746094 1164.445312 L 791.851562 1088.628906 L 829.746094 1012.816406 C 830.058594 1012.191406 830.339844 1011.550781 830.589844 1010.898438 C 830.839844 1010.246094 831.058594 1009.582031 831.242188 1008.910156 C 831.425781 1008.234375 831.578125 1007.554688 831.695312 1006.863281 C 831.8125 1006.175781 831.894531 1005.484375 831.945312 1004.785156 C 831.996094 1004.089844 832.011719 1003.390625 831.992188 1002.691406 C 831.972656 1001.992188 831.917969 1001.296875 831.832031 1000.605469 C 831.746094 999.910156 831.625 999.222656 831.46875 998.542969 C 831.3125 997.859375 831.125 997.1875 830.90625 996.523438 C 830.683594 995.863281 830.429688 995.210938 830.148438 994.574219 C 829.863281 993.9375 829.546875 993.3125 829.199219 992.707031 C 828.855469 992.097656 828.480469 991.511719 828.074219 990.941406 C 827.671875 990.371094 827.242188 989.820312 826.785156 989.292969 C 826.324219 988.765625 825.84375 988.257812 825.335938 987.777344 C 824.828125 987.296875 824.300781 986.84375 823.746094 986.414062 C 823.195312 985.988281 822.625 985.585938 822.03125 985.214844 C 821.441406 984.839844 820.832031 984.5 820.207031 984.1875 Z M 820.207031 984.1875 " fill-opacity="1" fill-rule="nonzero"/><path fill="#000000" d="M 597.332031 1024.613281 L 640 1024.613281 C 640.699219 1024.613281 641.394531 1024.578125 642.089844 1024.507812 C 642.785156 1024.441406 643.476562 1024.339844 644.160156 1024.203125 C 644.847656 1024.066406 645.523438 1023.894531 646.191406 1023.691406 C 646.863281 1023.488281 647.519531 1023.253906 648.164062 1022.988281 C 648.808594 1022.71875 649.441406 1022.421875 650.058594 1022.09375 C 650.671875 1021.761719 651.269531 1021.402344 651.851562 1021.015625 C 652.433594 1020.628906 652.992188 1020.210938 653.535156 1019.769531 C 654.074219 1019.324219 654.589844 1018.855469 655.085938 1018.363281 C 655.578125 1017.867188 656.046875 1017.351562 656.492188 1016.808594 C 656.933594 1016.269531 657.351562 1015.707031 657.738281 1015.128906 C 658.125 1014.546875 658.484375 1013.949219 658.8125 1013.332031 C 659.144531 1012.714844 659.441406 1012.085938 659.710938 1011.4375 C 659.976562 1010.792969 660.210938 1010.136719 660.414062 1009.464844 C 660.617188 1008.796875 660.785156 1008.121094 660.921875 1007.433594 C 661.058594 1006.75 661.164062 1006.058594 661.230469 1005.363281 C 661.300781 1004.667969 661.332031 1003.972656 661.332031 1003.273438 C 661.332031 1002.574219 661.300781 1001.875 661.230469 1001.179688 C 661.164062 1000.484375 661.058594 999.792969 660.921875 999.109375 C 660.785156 998.421875 660.617188 997.746094 660.414062 997.078125 C 660.210938 996.410156 659.976562 995.75 659.710938 995.105469 C 659.441406 994.460938 659.144531 993.828125 658.8125 993.210938 C 658.484375 992.597656 658.125 991.996094 657.738281 991.417969 C 657.351562 990.835938 656.933594 990.273438 656.492188 989.734375 C 656.046875 989.195312 655.578125 988.675781 655.085938 988.183594 C 654.589844 987.6875 654.074219 987.21875 653.535156 986.777344 C 652.992188 986.332031 652.433594 985.917969 651.851562 985.527344 C 651.269531 985.140625 650.671875 984.78125 650.054688 984.453125 C 649.441406 984.121094 648.808594 983.824219 648.164062 983.558594 C 647.519531 983.289062 646.863281 983.054688 646.191406 982.851562 C 645.523438 982.648438 644.847656 982.480469 644.160156 982.34375 C 643.476562 982.207031 642.785156 982.105469 642.089844 982.035156 C 641.394531 981.96875 640.699219 981.933594 640 981.933594 L 597.332031 981.933594 C 596.285156 981.933594 595.238281 981.957031 594.191406 982.007812 C 593.148438 982.0625 592.101562 982.136719 591.058594 982.242188 C 590.019531 982.34375 588.980469 982.472656 587.941406 982.625 C 586.90625 982.777344 585.875 982.957031 584.847656 983.164062 C 583.820312 983.367188 582.796875 983.597656 581.78125 983.851562 C 580.765625 984.105469 579.757812 984.386719 578.753906 984.6875 C 577.753906 984.992188 576.757812 985.320312 575.773438 985.675781 C 574.785156 986.027344 573.808594 986.40625 572.839844 986.804688 C 571.875 987.207031 570.917969 987.632812 569.96875 988.078125 C 569.023438 988.527344 568.085938 988.996094 567.164062 989.492188 C 566.238281 989.984375 565.328125 990.5 564.429688 991.039062 C 563.53125 991.578125 562.648438 992.140625 561.777344 992.722656 C 560.90625 993.304688 560.050781 993.90625 559.207031 994.53125 C 558.367188 995.15625 557.542969 995.800781 556.730469 996.464844 C 555.921875 997.128906 555.128906 997.8125 554.355469 998.515625 C 553.578125 999.21875 552.820312 999.941406 552.078125 1000.683594 C 551.339844 1001.425781 550.617188 1002.183594 549.914062 1002.957031 C 549.210938 1003.734375 548.523438 1004.527344 547.859375 1005.339844 C 547.195312 1006.148438 546.550781 1006.972656 545.929688 1007.816406 C 545.304688 1008.65625 544.703125 1009.511719 544.121094 1010.382812 C 543.539062 1011.253906 542.976562 1012.140625 542.4375 1013.039062 C 541.898438 1013.9375 541.382812 1014.847656 540.890625 1015.773438 C 540.398438 1016.695312 539.925781 1017.632812 539.476562 1018.578125 C 539.03125 1019.527344 538.605469 1020.484375 538.207031 1021.453125 C 537.804688 1022.421875 537.425781 1023.398438 537.074219 1024.382812 C 536.722656 1025.371094 536.394531 1026.363281 536.089844 1027.367188 C 535.785156 1028.371094 535.507812 1029.378906 535.25 1030.394531 C 534.996094 1031.414062 534.765625 1032.433594 534.5625 1033.460938 C 534.359375 1034.488281 534.179688 1035.519531 534.027344 1036.558594 C 533.871094 1037.59375 533.746094 1038.632812 533.640625 1039.675781 C 533.539062 1040.71875 533.460938 1041.761719 533.410156 1042.808594 C 533.359375 1043.855469 533.332031 1044.902344 533.332031 1045.953125 C 533.332031 1047 533.359375 1048.046875 533.410156 1049.09375 C 533.460938 1050.140625 533.539062 1051.183594 533.640625 1052.226562 C 533.746094 1053.269531 533.871094 1054.308594 534.027344 1055.34375 C 534.179688 1056.382812 534.359375 1057.414062 534.5625 1058.441406 C 534.765625 1059.46875 534.996094 1060.492188 535.25 1061.507812 C 535.507812 1062.523438 535.785156 1063.53125 536.089844 1064.535156 C 536.394531 1065.539062 536.722656 1066.53125 537.074219 1067.519531 C 537.425781 1068.503906 537.804688 1069.480469 538.207031 1070.449219 C 538.605469 1071.417969 539.03125 1072.375 539.476562 1073.324219 C 539.925781 1074.269531 540.398438 1075.207031 540.890625 1076.128906 C 541.382812 1077.054688 541.898438 1077.964844 542.4375 1078.863281 C 542.976562 1079.761719 543.539062 1080.648438 544.121094 1081.519531 C 544.703125 1082.390625 545.304688 1083.246094 545.929688 1084.085938 C 546.550781 1084.929688 547.195312 1085.753906 547.859375 1086.5625 C 548.523438 1087.375 549.210938 1088.167969 549.914062 1088.945312 C 550.617188 1089.71875 551.339844 1090.476562 552.078125 1091.21875 C 552.820312 1091.960938 553.578125 1092.683594 554.355469 1093.386719 C 555.128906 1094.089844 555.921875 1094.773438 556.730469 1095.4375 C 557.542969 1096.101562 558.367188 1096.746094 559.207031 1097.371094 C 560.050781 1097.996094 560.90625 1098.597656 561.777344 1099.179688 C 562.648438 1099.761719 563.53125 1100.324219 564.429688 1100.863281 C 565.328125 1101.402344 566.238281 1101.917969 567.164062 1102.410156 C 568.085938 1102.90625 569.023438 1103.375 569.96875 1103.824219 C 570.917969 1104.269531 571.875 1104.695312 572.839844 1105.097656 C 573.808594 1105.496094 574.785156 1105.875 575.773438 1106.226562 C 576.757812 1106.582031 577.753906 1106.910156 578.753906 1107.214844 C 579.757812 1107.515625 580.765625 1107.796875 581.78125 1108.050781 C 582.796875 1108.304688 583.820312 1108.535156 584.847656 1108.738281 C 585.875 1108.945312 586.90625 1109.125 587.941406 1109.277344 C 588.980469 1109.429688 590.019531 1109.558594 591.058594 1109.660156 C 592.101562 1109.765625 593.148438 1109.839844 594.191406 1109.894531 C 595.238281 1109.945312 596.285156 1109.96875 597.332031 1109.96875 C 598.03125 1109.96875 598.730469 1110.003906 599.425781 1110.074219 C 600.121094 1110.140625 600.808594 1110.242188 601.496094 1110.378906 C 602.179688 1110.515625 602.859375 1110.6875 603.527344 1110.890625 C 604.195312 1111.089844 604.851562 1111.328125 605.496094 1111.59375 C 606.144531 1111.863281 606.773438 1112.160156 607.390625 1112.488281 C 608.007812 1112.820312 608.605469 1113.179688 609.183594 1113.566406 C 609.765625 1113.953125 610.328125 1114.371094 610.867188 1114.8125 C 611.40625 1115.257812 611.925781 1115.726562 612.417969 1116.21875 C 612.914062 1116.714844 613.382812 1117.230469 613.824219 1117.773438 C 614.265625 1118.3125 614.683594 1118.871094 615.070312 1119.453125 C 615.460938 1120.035156 615.816406 1120.632812 616.148438 1121.25 C 616.476562 1121.867188 616.777344 1122.496094 617.042969 1123.144531 C 617.308594 1123.789062 617.546875 1124.445312 617.75 1125.113281 C 617.949219 1125.785156 618.121094 1126.460938 618.257812 1127.144531 C 618.394531 1127.832031 618.496094 1128.523438 618.5625 1129.21875 C 618.632812 1129.914062 618.667969 1130.609375 618.667969 1131.308594 C 618.667969 1132.007812 618.632812 1132.707031 618.5625 1133.402344 C 618.496094 1134.097656 618.394531 1134.789062 618.257812 1135.472656 C 618.121094 1136.15625 617.949219 1136.835938 617.75 1137.503906 C 617.546875 1138.171875 617.308594 1138.832031 617.042969 1139.476562 C 616.777344 1140.121094 616.476562 1140.753906 616.148438 1141.367188 C 615.816406 1141.984375 615.460938 1142.585938 615.070312 1143.164062 C 614.683594 1143.746094 614.265625 1144.308594 613.824219 1144.847656 C 613.382812 1145.386719 612.914062 1145.90625 612.417969 1146.398438 C 611.925781 1146.894531 611.40625 1147.363281 610.867188 1147.804688 C 610.328125 1148.25 609.765625 1148.664062 609.183594 1149.050781 C 608.605469 1149.441406 608.007812 1149.800781 607.390625 1150.128906 C 606.773438 1150.457031 606.144531 1150.757812 605.496094 1151.023438 C 604.851562 1151.292969 604.195312 1151.527344 603.527344 1151.730469 C 602.859375 1151.933594 602.179688 1152.101562 601.496094 1152.238281 C 600.808594 1152.375 600.121094 1152.476562 599.425781 1152.546875 C 598.730469 1152.613281 598.03125 1152.648438 597.332031 1152.648438 L 554.667969 1152.648438 C 553.96875 1152.648438 553.269531 1152.683594 552.574219 1152.753906 C 551.878906 1152.820312 551.191406 1152.921875 550.503906 1153.058594 C 549.820312 1153.195312 549.144531 1153.363281 548.472656 1153.566406 C 547.804688 1153.769531 547.148438 1154.007812 546.503906 1154.273438 C 545.855469 1154.542969 545.226562 1154.839844 544.609375 1155.167969 C 543.996094 1155.5 543.394531 1155.855469 542.816406 1156.246094 C 542.234375 1156.632812 541.671875 1157.050781 541.132812 1157.492188 C 540.59375 1157.9375 540.074219 1158.40625 539.582031 1158.898438 C 539.085938 1159.394531 538.617188 1159.910156 538.175781 1160.449219 C 537.734375 1160.992188 537.316406 1161.550781 536.929688 1162.132812 C 536.539062 1162.714844 536.183594 1163.3125 535.851562 1163.929688 C 535.523438 1164.546875 535.226562 1165.175781 534.957031 1165.824219 C 534.691406 1166.46875 534.453125 1167.125 534.253906 1167.792969 C 534.050781 1168.464844 533.878906 1169.140625 533.742188 1169.824219 C 533.605469 1170.511719 533.503906 1171.203125 533.4375 1171.898438 C 533.367188 1172.59375 533.332031 1173.289062 533.332031 1173.988281 C 533.332031 1174.6875 533.367188 1175.386719 533.4375 1176.082031 C 533.503906 1176.777344 533.605469 1177.464844 533.742188 1178.152344 C 533.878906 1178.835938 534.050781 1179.515625 534.253906 1180.183594 C 534.453125 1180.851562 534.691406 1181.507812 534.957031 1182.15625 C 535.226562 1182.800781 535.523438 1183.433594 535.851562 1184.046875 C 536.183594 1184.664062 536.539062 1185.261719 536.929688 1185.84375 C 537.316406 1186.425781 537.734375 1186.984375 538.175781 1187.527344 C 538.617188 1188.066406 539.085938 1188.582031 539.582031 1189.078125 C 540.074219 1189.574219 540.59375 1190.042969 541.132812 1190.484375 C 541.671875 1190.929688 542.234375 1191.34375 542.816406 1191.730469 C 543.394531 1192.121094 543.996094 1192.480469 544.609375 1192.808594 C 545.226562 1193.136719 545.855469 1193.4375 546.503906 1193.703125 C 547.148438 1193.972656 547.804688 1194.207031 548.472656 1194.410156 C 549.144531 1194.613281 549.820312 1194.78125 550.503906 1194.917969 C 551.191406 1195.054688 551.878906 1195.15625 552.574219 1195.226562 C 553.269531 1195.292969 553.96875 1195.328125 554.667969 1195.328125 L 597.332031 1195.328125 C 598.378906 1195.328125 599.425781 1195.300781 600.472656 1195.25 C 601.519531 1195.199219 602.5625 1195.121094 603.605469 1195.019531 C 604.648438 1194.917969 605.6875 1194.789062 606.722656 1194.636719 C 607.761719 1194.480469 608.792969 1194.300781 609.820312 1194.097656 C 610.847656 1193.894531 611.867188 1193.664062 612.882812 1193.410156 C 613.898438 1193.15625 614.910156 1192.875 615.910156 1192.570312 C 616.914062 1192.265625 617.910156 1191.9375 618.894531 1191.585938 C 619.878906 1191.234375 620.855469 1190.855469 621.824219 1190.453125 C 622.792969 1190.054688 623.75 1189.628906 624.695312 1189.183594 C 625.644531 1188.734375 626.578125 1188.261719 627.503906 1187.769531 C 628.425781 1187.273438 629.335938 1186.757812 630.234375 1186.21875 C 631.132812 1185.679688 632.019531 1185.121094 632.890625 1184.539062 C 633.761719 1183.957031 634.617188 1183.355469 635.457031 1182.730469 C 636.300781 1182.105469 637.125 1181.460938 637.933594 1180.796875 C 638.746094 1180.132812 639.539062 1179.449219 640.3125 1178.746094 C 641.089844 1178.039062 641.847656 1177.320312 642.589844 1176.578125 C 643.328125 1175.835938 644.050781 1175.078125 644.753906 1174.300781 C 645.457031 1173.527344 646.140625 1172.734375 646.804688 1171.921875 C 647.46875 1171.113281 648.113281 1170.285156 648.738281 1169.445312 C 649.363281 1168.605469 649.964844 1167.746094 650.546875 1166.875 C 651.128906 1166.003906 651.691406 1165.121094 652.226562 1164.222656 C 652.765625 1163.324219 653.28125 1162.410156 653.777344 1161.488281 C 654.269531 1160.5625 654.742188 1159.628906 655.1875 1158.679688 C 655.636719 1157.734375 656.0625 1156.777344 656.460938 1155.808594 C 656.863281 1154.839844 657.238281 1153.863281 657.59375 1152.875 C 657.945312 1151.890625 658.273438 1150.894531 658.578125 1149.894531 C 658.882812 1148.890625 659.160156 1147.882812 659.414062 1146.863281 C 659.671875 1145.847656 659.898438 1144.828125 660.105469 1143.800781 C 660.308594 1142.769531 660.488281 1141.738281 660.640625 1140.703125 C 660.792969 1139.667969 660.921875 1138.628906 661.023438 1137.585938 C 661.128906 1136.542969 661.203125 1135.496094 661.257812 1134.449219 C 661.308594 1133.40625 661.332031 1132.355469 661.332031 1131.308594 C 661.332031 1130.261719 661.308594 1129.214844 661.257812 1128.167969 C 661.203125 1127.121094 661.128906 1126.078125 661.023438 1125.035156 C 660.921875 1123.992188 660.792969 1122.953125 660.640625 1121.917969 C 660.488281 1120.878906 660.308594 1119.847656 660.105469 1118.820312 C 659.898438 1117.792969 659.671875 1116.769531 659.414062 1115.753906 C 659.160156 1114.738281 658.882812 1113.726562 658.578125 1112.726562 C 658.273438 1111.722656 657.945312 1110.730469 657.59375 1109.742188 C 657.238281 1108.753906 656.863281 1107.777344 656.460938 1106.808594 C 656.0625 1105.84375 655.636719 1104.886719 655.1875 1103.9375 C 654.742188 1102.992188 654.269531 1102.054688 653.777344 1101.132812 C 653.28125 1100.207031 652.765625 1099.296875 652.226562 1098.398438 C 651.691406 1097.5 651.128906 1096.613281 650.546875 1095.742188 C 649.964844 1094.871094 649.363281 1094.015625 648.738281 1093.171875 C 648.113281 1092.332031 647.46875 1091.507812 646.804688 1090.695312 C 646.140625 1089.886719 645.457031 1089.09375 644.753906 1088.316406 C 644.050781 1087.539062 643.328125 1086.78125 642.589844 1086.042969 C 641.847656 1085.300781 641.089844 1084.578125 640.3125 1083.875 C 639.539062 1083.171875 638.746094 1082.488281 637.933594 1081.824219 C 637.125 1081.15625 636.300781 1080.511719 635.457031 1079.890625 C 634.617188 1079.265625 633.761719 1078.660156 632.890625 1078.078125 C 632.019531 1077.496094 631.132812 1076.9375 630.234375 1076.398438 C 629.335938 1075.859375 628.425781 1075.34375 627.503906 1074.851562 C 626.578125 1074.355469 625.644531 1073.886719 624.695312 1073.4375 C 623.75 1072.988281 622.792969 1072.566406 621.824219 1072.164062 C 620.855469 1071.761719 619.878906 1071.386719 618.894531 1071.03125 C 617.910156 1070.679688 616.914062 1070.351562 615.910156 1070.046875 C 614.910156 1069.742188 613.898438 1069.464844 612.882812 1069.210938 C 611.867188 1068.953125 610.847656 1068.726562 609.820312 1068.519531 C 608.792969 1068.316406 607.761719 1068.136719 606.722656 1067.984375 C 605.6875 1067.832031 604.648438 1067.703125 603.605469 1067.597656 C 602.5625 1067.496094 601.519531 1067.417969 600.472656 1067.367188 C 599.425781 1067.316406 598.378906 1067.289062 597.332031 1067.289062 C 596.636719 1067.289062 595.9375 1067.257812 595.242188 1067.1875 C 594.546875 1067.121094 593.855469 1067.015625 593.171875 1066.878906 C 592.484375 1066.746094 591.808594 1066.574219 591.140625 1066.371094 C 590.472656 1066.167969 589.816406 1065.933594 589.167969 1065.667969 C 588.523438 1065.398438 587.894531 1065.101562 587.277344 1064.769531 C 586.660156 1064.441406 586.0625 1064.082031 585.480469 1063.695312 C 584.898438 1063.304688 584.339844 1062.890625 583.800781 1062.445312 C 583.257812 1062.003906 582.742188 1061.535156 582.25 1061.039062 C 581.753906 1060.546875 581.285156 1060.027344 580.84375 1059.488281 C 580.398438 1058.949219 579.984375 1058.386719 579.59375 1057.808594 C 579.207031 1057.226562 578.847656 1056.628906 578.519531 1056.011719 C 578.191406 1055.394531 577.890625 1054.761719 577.625 1054.117188 C 577.355469 1053.472656 577.121094 1052.816406 576.917969 1052.144531 C 576.714844 1051.476562 576.546875 1050.800781 576.410156 1050.113281 C 576.273438 1049.429688 576.171875 1048.738281 576.101562 1048.042969 C 576.035156 1047.347656 576 1046.648438 576 1045.953125 C 576 1045.253906 576.035156 1044.554688 576.101562 1043.859375 C 576.171875 1043.164062 576.273438 1042.472656 576.410156 1041.789062 C 576.546875 1041.101562 576.714844 1040.425781 576.917969 1039.757812 C 577.121094 1039.085938 577.355469 1038.429688 577.625 1037.785156 C 577.890625 1037.140625 578.191406 1036.507812 578.519531 1035.890625 C 578.847656 1035.277344 579.207031 1034.675781 579.59375 1034.09375 C 579.984375 1033.515625 580.398438 1032.953125 580.84375 1032.414062 C 581.285156 1031.875 581.753906 1031.355469 582.25 1030.863281 C 582.742188 1030.367188 583.257812 1029.898438 583.800781 1029.457031 C 584.339844 1029.011719 584.898438 1028.597656 585.480469 1028.207031 C 586.0625 1027.820312 586.660156 1027.460938 587.277344 1027.132812 C 587.894531 1026.800781 588.523438 1026.503906 589.167969 1026.234375 C 589.816406 1025.96875 590.472656 1025.734375 591.140625 1025.53125 C 591.808594 1025.328125 592.484375 1025.15625 593.171875 1025.023438 C 593.855469 1024.886719 594.546875 1024.78125 595.242188 1024.714844 C 595.9375 1024.644531 596.636719 1024.613281 597.332031 1024.613281 Z M 597.332031 1024.613281 " fill-opacity="1" fill-rule="nonzero"/><path fill="#000000" d="M 170.667969 768.535156 L 853.332031 768.535156 C 854.03125 768.535156 854.730469 768.503906 855.425781 768.433594 C 856.121094 768.367188 856.808594 768.261719 857.496094 768.125 C 858.179688 767.992188 858.859375 767.820312 859.527344 767.617188 C 860.195312 767.414062 860.851562 767.179688 861.496094 766.914062 C 862.144531 766.644531 862.773438 766.347656 863.390625 766.015625 C 864.007812 765.6875 864.605469 765.328125 865.1875 764.941406 C 865.765625 764.550781 866.328125 764.136719 866.867188 763.691406 C 867.40625 763.25 867.925781 762.78125 868.417969 762.285156 C 868.914062 761.792969 869.382812 761.273438 869.824219 760.734375 C 870.269531 760.195312 870.683594 759.632812 871.070312 759.050781 C 871.460938 758.472656 871.820312 757.871094 872.148438 757.257812 C 872.476562 756.640625 872.777344 756.007812 873.042969 755.363281 C 873.308594 754.71875 873.546875 754.058594 873.75 753.390625 C 873.949219 752.722656 874.121094 752.046875 874.257812 751.359375 C 874.394531 750.675781 874.496094 749.984375 874.5625 749.289062 C 874.632812 748.59375 874.667969 747.894531 874.667969 747.195312 L 874.667969 363.085938 C 874.667969 362.386719 874.632812 361.6875 874.5625 360.992188 C 874.496094 360.296875 874.394531 359.605469 874.257812 358.921875 C 874.121094 358.234375 873.949219 357.558594 873.75 356.890625 C 873.546875 356.222656 873.308594 355.5625 873.042969 354.917969 C 872.777344 354.273438 872.476562 353.640625 872.148438 353.023438 C 871.820312 352.410156 871.460938 351.808594 871.070312 351.230469 C 870.683594 350.648438 870.269531 350.085938 869.824219 349.546875 C 869.382812 349.007812 868.914062 348.488281 868.417969 347.996094 C 867.925781 347.5 867.40625 347.03125 866.867188 346.589844 C 866.328125 346.144531 865.765625 345.730469 865.1875 345.339844 C 864.605469 344.953125 864.007812 344.59375 863.390625 344.265625 C 862.773438 343.933594 862.144531 343.636719 861.496094 343.371094 C 860.851562 343.101562 860.195312 342.867188 859.527344 342.664062 C 858.859375 342.460938 858.179688 342.292969 857.496094 342.15625 C 856.808594 342.019531 856.121094 341.917969 855.425781 341.847656 C 854.730469 341.777344 854.03125 341.746094 853.332031 341.746094 L 362.667969 341.746094 L 362.667969 235.046875 C 362.667969 234.347656 362.632812 233.652344 362.5625 232.957031 C 362.496094 232.261719 362.394531 231.570312 362.257812 230.882812 C 362.121094 230.199219 361.949219 229.519531 361.75 228.851562 C 361.546875 228.183594 361.308594 227.527344 361.042969 226.878906 C 360.777344 226.234375 360.476562 225.605469 360.148438 224.988281 C 359.816406 224.371094 359.460938 223.773438 359.070312 223.191406 C 358.683594 222.609375 358.265625 222.050781 357.824219 221.507812 C 357.382812 220.96875 356.914062 220.453125 356.417969 219.957031 C 355.925781 219.464844 355.40625 218.996094 354.867188 218.550781 C 354.328125 218.109375 353.765625 217.691406 353.1875 217.304688 C 352.605469 216.914062 352.007812 216.558594 351.390625 216.226562 C 350.773438 215.898438 350.144531 215.597656 349.496094 215.332031 C 348.851562 215.0625 348.195312 214.828125 347.527344 214.625 C 346.859375 214.421875 346.179688 214.253906 345.496094 214.117188 C 344.808594 213.980469 344.121094 213.878906 343.425781 213.808594 C 342.730469 213.742188 342.03125 213.707031 341.332031 213.707031 L 170.667969 213.707031 C 169.96875 213.707031 169.269531 213.742188 168.574219 213.808594 C 167.878906 213.878906 167.191406 213.980469 166.503906 214.117188 C 165.820312 214.253906 165.144531 214.421875 164.472656 214.625 C 163.804688 214.828125 163.148438 215.0625 162.503906 215.332031 C 161.855469 215.597656 161.226562 215.898438 160.609375 216.226562 C 159.992188 216.558594 159.394531 216.914062 158.816406 217.304688 C 158.234375 217.691406 157.671875 218.109375 157.132812 218.550781 C 156.59375 218.996094 156.074219 219.464844 155.582031 219.957031 C 155.085938 220.453125 154.617188 220.96875 154.175781 221.507812 C 153.734375 222.050781 153.316406 222.609375 152.929688 223.191406 C 152.539062 223.773438 152.183594 224.371094 151.851562 224.988281 C 151.523438 225.605469 151.226562 226.234375 150.957031 226.878906 C 150.691406 227.527344 150.453125 228.183594 150.253906 228.851562 C 150.050781 229.519531 149.878906 230.199219 149.742188 230.882812 C 149.605469 231.570312 149.503906 232.261719 149.4375 232.957031 C 149.367188 233.652344 149.332031 234.347656 149.332031 235.046875 L 149.332031 747.195312 C 149.332031 747.894531 149.367188 748.59375 149.4375 749.289062 C 149.503906 749.984375 149.605469 750.675781 149.742188 751.359375 C 149.878906 752.046875 150.050781 752.722656 150.253906 753.390625 C 150.453125 754.058594 150.691406 754.71875 150.957031 755.363281 C 151.226562 756.007812 151.523438 756.640625 151.851562 757.257812 C 152.183594 757.871094 152.539062 758.472656 152.929688 759.050781 C 153.316406 759.632812 153.734375 760.195312 154.175781 760.734375 C 154.617188 761.273438 155.085938 761.792969 155.582031 762.285156 C 156.074219 762.78125 156.59375 763.25 157.132812 763.691406 C 157.671875 764.136719 158.234375 764.550781 158.816406 764.941406 C 159.394531 765.328125 159.992188 765.6875 160.609375 766.015625 C 161.226562 766.347656 161.855469 766.644531 162.503906 766.914062 C 163.148438 767.179688 163.804688 767.414062 164.472656 767.617188 C 165.140625 767.820312 165.820312 767.992188 166.503906 768.125 C 167.191406 768.261719 167.878906 768.367188 168.574219 768.433594 C 169.269531 768.503906 169.96875 768.535156 170.667969 768.535156 Z M 661.332031 597.820312 L 533.332031 597.820312 L 533.332031 512.460938 L 661.332031 512.460938 Z M 704 512.460938 L 832 512.460938 L 832 597.820312 L 704 597.820312 Z M 192 512.460938 L 320 512.460938 L 320 597.820312 L 192 597.820312 Z M 362.667969 512.460938 L 490.667969 512.460938 L 490.667969 597.820312 L 362.667969 597.820312 Z M 490.667969 640.5 L 490.667969 725.859375 L 362.667969 725.859375 L 362.667969 640.5 Z M 533.332031 640.5 L 661.332031 640.5 L 661.332031 725.859375 L 533.332031 725.859375 Z M 533.332031 469.78125 L 533.332031 384.425781 L 661.332031 384.425781 L 661.332031 469.78125 Z M 490.667969 469.78125 L 362.667969 469.78125 L 362.667969 384.425781 L 490.667969 384.425781 Z M 320 469.78125 L 192 469.78125 L 192 384.425781 L 320 384.425781 Z M 192 640.5 L 320 640.5 L 320 725.859375 L 192 725.859375 Z M 704 725.859375 L 704 640.5 L 832 640.5 L 832 725.859375 Z M 832 469.78125 L 704 469.78125 L 704 384.425781 L 832 384.425781 Z M 192 256.386719 L 320 256.386719 L 320 341.746094 L 192 341.746094 Z M 192 256.386719 " fill-opacity="1" fill-rule="nonzero"/></svg>