<svg xmlns="http://www.w3.org/2000/svg" xmlns:xlink="http://www.w3.org/1999/xlink" width="1366" zoomAndPan="magnify" viewBox="0 0 1024.5 734.249982" height="768" preserveAspectRatio="xMidYMid meet" version="1.0"><defs><clipPath id="8462e4c638"><path d="M 1 0 L 1023.726562 0 L 1023.726562 732.75 L 1 732.75 Z M 1 0 " clip-rule="nonzero"/></clipPath></defs><path fill="#000000" d="M 618.378906 333.414062 C 617.941406 332.972656 617.480469 332.554688 616.996094 332.160156 C 616.515625 331.765625 616.015625 331.394531 615.496094 331.046875 C 614.980469 330.699219 614.445312 330.378906 613.894531 330.085938 C 613.34375 329.792969 612.78125 329.527344 612.207031 329.289062 C 611.632812 329.050781 611.046875 328.839844 610.449219 328.660156 C 609.851562 328.476562 609.246094 328.328125 608.636719 328.203125 C 608.023438 328.082031 607.410156 327.992188 606.789062 327.929688 C 606.167969 327.867188 605.546875 327.839844 604.921875 327.839844 C 604.300781 327.839844 603.679688 327.867188 603.058594 327.929688 C 602.4375 327.992188 601.820312 328.082031 601.210938 328.203125 C 600.597656 328.324219 599.996094 328.476562 599.398438 328.65625 C 598.800781 328.839844 598.214844 329.046875 597.640625 329.285156 C 597.0625 329.523438 596.5 329.789062 595.949219 330.085938 C 595.402344 330.378906 594.867188 330.699219 594.347656 331.046875 C 593.832031 331.390625 593.332031 331.761719 592.847656 332.15625 C 592.367188 332.554688 591.90625 332.972656 591.464844 333.410156 C 591.023438 333.851562 590.605469 334.3125 590.210938 334.796875 C 589.816406 335.277344 589.445312 335.777344 589.097656 336.296875 C 588.753906 336.8125 588.433594 337.347656 588.140625 337.898438 C 587.84375 338.445312 587.578125 339.007812 587.339844 339.585938 C 587.101562 340.160156 586.894531 340.746094 586.710938 341.34375 C 586.53125 341.941406 586.382812 342.542969 586.261719 343.15625 C 586.136719 343.765625 586.046875 344.382812 585.988281 345.003906 C 585.925781 345.621094 585.894531 346.242188 585.894531 346.867188 C 585.894531 347.488281 585.925781 348.113281 585.988281 348.730469 C 586.050781 349.351562 586.140625 349.96875 586.265625 350.578125 C 586.386719 351.191406 586.539062 351.792969 586.71875 352.390625 C 586.902344 352.984375 587.109375 353.570312 587.351562 354.148438 C 587.589844 354.722656 587.855469 355.285156 588.148438 355.835938 C 588.445312 356.382812 588.765625 356.917969 589.113281 357.433594 C 589.457031 357.953125 589.828125 358.453125 590.226562 358.933594 C 590.621094 359.414062 591.039062 359.875 591.480469 360.316406 L 674.578125 443.367188 L 591.480469 526.425781 C 591.027344 526.863281 590.597656 527.324219 590.191406 527.804688 C 589.78125 528.285156 589.398438 528.785156 589.042969 529.300781 C 588.683594 529.820312 588.351562 530.355469 588.046875 530.90625 C 587.742188 531.457031 587.464844 532.019531 587.21875 532.601562 C 586.96875 533.179688 586.75 533.769531 586.558594 534.367188 C 586.371094 534.96875 586.210938 535.578125 586.082031 536.191406 C 585.949219 536.808594 585.851562 537.429688 585.785156 538.058594 C 585.714844 538.683594 585.679688 539.3125 585.675781 539.941406 C 585.667969 540.570312 585.695312 541.199219 585.75 541.824219 C 585.808594 542.453125 585.894531 543.074219 586.015625 543.695312 C 586.132812 544.3125 586.28125 544.921875 586.460938 545.527344 C 586.640625 546.128906 586.851562 546.722656 587.089844 547.304688 C 587.328125 547.890625 587.59375 548.457031 587.890625 549.015625 C 588.183594 549.570312 588.507812 550.113281 588.855469 550.636719 C 589.203125 551.160156 589.578125 551.667969 589.976562 552.152344 C 590.378906 552.640625 590.800781 553.105469 591.246094 553.550781 C 591.691406 553.996094 592.15625 554.417969 592.644531 554.820312 C 593.132812 555.21875 593.636719 555.589844 594.160156 555.941406 C 594.6875 556.289062 595.226562 556.609375 595.785156 556.90625 C 596.339844 557.199219 596.910156 557.46875 597.492188 557.707031 C 598.078125 557.945312 598.667969 558.152344 599.273438 558.332031 C 599.878906 558.511719 600.488281 558.660156 601.105469 558.78125 C 601.726562 558.898438 602.347656 558.988281 602.976562 559.042969 C 603.605469 559.101562 604.230469 559.125 604.863281 559.121094 C 605.492188 559.117188 606.121094 559.078125 606.746094 559.011719 C 607.371094 558.941406 607.996094 558.84375 608.609375 558.714844 C 609.226562 558.585938 609.835938 558.425781 610.4375 558.234375 C 611.035156 558.046875 611.625 557.828125 612.207031 557.578125 C 612.785156 557.328125 613.347656 557.050781 613.902344 556.746094 C 614.453125 556.441406 614.988281 556.113281 615.503906 555.753906 C 616.023438 555.398438 616.523438 555.015625 617.003906 554.605469 C 617.484375 554.199219 617.941406 553.769531 618.378906 553.316406 L 714.917969 456.765625 C 715.359375 456.324219 715.777344 455.863281 716.171875 455.382812 C 716.566406 454.902344 716.9375 454.402344 717.285156 453.882812 C 717.628906 453.367188 717.949219 452.832031 718.242188 452.285156 C 718.539062 451.734375 718.804688 451.171875 719.042969 450.597656 C 719.28125 450.023438 719.488281 449.4375 719.671875 448.839844 C 719.851562 448.246094 720.003906 447.640625 720.125 447.03125 C 720.246094 446.417969 720.335938 445.804688 720.398438 445.183594 C 720.457031 444.566406 720.488281 443.945312 720.488281 443.320312 C 720.488281 442.699219 720.457031 442.078125 720.398438 441.457031 C 720.335938 440.835938 720.246094 440.222656 720.125 439.613281 C 720.003906 439 719.851562 438.398438 719.671875 437.800781 C 719.488281 437.207031 719.28125 436.621094 719.042969 436.046875 C 718.804688 435.46875 718.539062 434.90625 718.242188 434.359375 C 717.949219 433.808594 717.628906 433.277344 717.285156 432.757812 C 716.9375 432.242188 716.566406 431.742188 716.171875 431.257812 C 715.777344 430.777344 715.359375 430.316406 714.917969 429.875 Z M 618.378906 333.414062 " fill-opacity="1" fill-rule="nonzero"/><path fill="#000000" d="M 433.914062 333.414062 C 433.472656 332.972656 433.011719 332.558594 432.53125 332.160156 C 432.050781 331.765625 431.550781 331.394531 431.03125 331.050781 C 430.515625 330.703125 429.980469 330.386719 429.429688 330.089844 C 428.882812 329.796875 428.320312 329.53125 427.742188 329.292969 C 427.167969 329.054688 426.582031 328.847656 425.984375 328.664062 C 425.390625 328.484375 424.785156 328.332031 424.175781 328.210938 C 423.566406 328.089844 422.949219 328 422.328125 327.9375 C 421.710938 327.878906 421.085938 327.847656 420.464844 327.847656 C 419.84375 327.847656 419.21875 327.878906 418.601562 327.9375 C 417.980469 328 417.363281 328.089844 416.753906 328.210938 C 416.144531 328.332031 415.539062 328.484375 414.945312 328.664062 C 414.347656 328.847656 413.761719 329.054688 413.1875 329.292969 C 412.609375 329.53125 412.046875 329.796875 411.5 330.089844 C 410.949219 330.386719 410.414062 330.703125 409.898438 331.050781 C 409.378906 331.394531 408.878906 331.765625 408.398438 332.160156 C 407.917969 332.558594 407.457031 332.972656 407.015625 333.414062 L 310.464844 429.925781 C 310.023438 430.367188 309.605469 430.828125 309.210938 431.308594 C 308.816406 431.792969 308.445312 432.289062 308.097656 432.808594 C 307.753906 433.328125 307.433594 433.859375 307.140625 434.410156 C 306.847656 434.957031 306.578125 435.519531 306.339844 436.097656 C 306.101562 436.671875 305.894531 437.257812 305.714844 437.851562 C 305.53125 438.449219 305.382812 439.050781 305.257812 439.664062 C 305.136719 440.273438 305.046875 440.886719 304.984375 441.507812 C 304.925781 442.128906 304.894531 442.75 304.894531 443.371094 C 304.894531 443.996094 304.925781 444.617188 304.984375 445.234375 C 305.046875 445.855469 305.136719 446.46875 305.257812 447.082031 C 305.382812 447.691406 305.53125 448.296875 305.710938 448.890625 C 305.894531 449.488281 306.101562 450.074219 306.339844 450.648438 C 306.578125 451.222656 306.847656 451.785156 307.140625 452.335938 C 307.433594 452.882812 307.753906 453.417969 308.097656 453.933594 C 308.445312 454.453125 308.816406 454.953125 309.210938 455.433594 C 309.605469 455.914062 310.023438 456.375 310.464844 456.816406 L 407.015625 553.316406 C 407.457031 553.742188 407.921875 554.148438 408.402344 554.53125 C 408.886719 554.914062 409.386719 555.273438 409.902344 555.609375 C 410.421875 555.941406 410.953125 556.25 411.5 556.535156 C 412.046875 556.816406 412.609375 557.070312 413.179688 557.300781 C 413.753906 557.527344 414.335938 557.726562 414.925781 557.898438 C 415.519531 558.070312 416.117188 558.214844 416.722656 558.328125 C 417.328125 558.441406 417.9375 558.523438 418.550781 558.578125 C 419.164062 558.632812 419.78125 558.65625 420.394531 558.652344 C 421.011719 558.648438 421.625 558.613281 422.238281 558.546875 C 422.851562 558.480469 423.460938 558.386719 424.0625 558.261719 C 424.667969 558.140625 425.261719 557.984375 425.851562 557.804688 C 426.441406 557.621094 427.019531 557.410156 427.585938 557.175781 C 428.15625 556.9375 428.710938 556.671875 429.253906 556.378906 C 429.796875 556.085938 430.320312 555.769531 430.832031 555.425781 C 431.34375 555.082031 431.839844 554.714844 432.316406 554.324219 C 432.789062 553.933594 433.246094 553.519531 433.683594 553.082031 C 434.117188 552.648438 434.53125 552.191406 434.921875 551.71875 C 435.3125 551.242188 435.679688 550.746094 436.023438 550.238281 C 436.367188 549.726562 436.6875 549.199219 436.976562 548.65625 C 437.269531 548.113281 437.535156 547.558594 437.773438 546.992188 C 438.011719 546.421875 438.222656 545.84375 438.40625 545.257812 C 438.585938 544.667969 438.738281 544.074219 438.863281 543.46875 C 438.988281 542.867188 439.082031 542.257812 439.148438 541.644531 C 439.210938 541.03125 439.246094 540.417969 439.253906 539.804688 C 439.257812 539.1875 439.234375 538.574219 439.179688 537.960938 C 439.125 537.347656 439.042969 536.734375 438.929688 536.132812 C 438.8125 535.527344 438.671875 534.925781 438.5 534.335938 C 438.328125 533.746094 438.128906 533.164062 437.898438 532.589844 C 437.671875 532.019531 437.414062 531.457031 437.132812 530.910156 C 436.851562 530.363281 436.542969 529.832031 436.207031 529.316406 C 435.871094 528.796875 435.515625 528.296875 435.132812 527.816406 C 434.75 527.332031 434.34375 526.871094 433.914062 526.425781 L 350.820312 443.367188 L 433.914062 360.316406 C 434.355469 359.875 434.773438 359.414062 435.167969 358.933594 C 435.566406 358.453125 435.9375 357.953125 436.28125 357.433594 C 436.628906 356.914062 436.949219 356.382812 437.242188 355.832031 C 437.535156 355.285156 437.804688 354.722656 438.042969 354.144531 C 438.28125 353.570312 438.488281 352.984375 438.671875 352.386719 C 438.851562 351.792969 439.003906 351.1875 439.125 350.578125 C 439.246094 349.964844 439.339844 349.351562 439.398438 348.730469 C 439.460938 348.109375 439.492188 347.488281 439.492188 346.867188 C 439.492188 346.242188 439.460938 345.621094 439.398438 345 C 439.339844 344.378906 439.246094 343.765625 439.125 343.152344 C 439.003906 342.542969 438.851562 341.9375 438.671875 341.34375 C 438.488281 340.746094 438.28125 340.160156 438.042969 339.585938 C 437.804688 339.011719 437.535156 338.449219 437.242188 337.898438 C 436.949219 337.347656 436.628906 336.816406 436.28125 336.296875 C 435.9375 335.777344 435.566406 335.277344 435.167969 334.796875 C 434.773438 334.316406 434.355469 333.855469 433.914062 333.414062 Z M 433.914062 333.414062 " fill-opacity="1" fill-rule="nonzero"/><path fill="#000000" d="M 556.503906 285.886719 C 555.902344 285.71875 555.292969 285.585938 554.679688 285.476562 C 554.0625 285.371094 553.445312 285.292969 552.824219 285.25 C 552.199219 285.203125 551.578125 285.1875 550.953125 285.203125 C 550.328125 285.21875 549.707031 285.265625 549.089844 285.339844 C 548.46875 285.417969 547.855469 285.523438 547.246094 285.660156 C 546.636719 285.800781 546.035156 285.964844 545.445312 286.160156 C 544.851562 286.359375 544.269531 286.582031 543.699219 286.835938 C 543.128906 287.089844 542.574219 287.371094 542.03125 287.679688 C 541.488281 287.984375 540.960938 288.320312 540.453125 288.679688 C 539.941406 289.039062 539.449219 289.421875 538.980469 289.832031 C 538.507812 290.238281 538.054688 290.671875 537.625 291.121094 C 537.195312 291.574219 536.789062 292.046875 536.40625 292.539062 C 536.023438 293.03125 535.667969 293.542969 535.332031 294.070312 C 535 294.597656 534.695312 295.140625 534.414062 295.699219 C 534.136719 296.257812 533.882812 296.828125 533.660156 297.410156 C 533.4375 297.992188 533.242188 298.585938 533.078125 299.1875 L 455.714844 577.402344 C 455.539062 578.007812 455.390625 578.617188 455.277344 579.234375 C 455.160156 579.851562 455.074219 580.476562 455.019531 581.101562 C 454.964844 581.730469 454.941406 582.355469 454.949219 582.984375 C 454.957031 583.613281 454.996094 584.242188 455.066406 584.867188 C 455.132812 585.492188 455.234375 586.109375 455.367188 586.726562 C 455.496094 587.339844 455.660156 587.949219 455.851562 588.546875 C 456.042969 589.144531 456.261719 589.734375 456.511719 590.3125 C 456.761719 590.886719 457.042969 591.453125 457.347656 592 C 457.652344 592.550781 457.984375 593.082031 458.34375 593.601562 C 458.703125 594.117188 459.085938 594.613281 459.496094 595.09375 C 459.902344 595.570312 460.332031 596.027344 460.789062 596.464844 C 461.242188 596.898438 461.714844 597.3125 462.210938 597.699219 C 462.703125 598.089844 463.214844 598.453125 463.746094 598.792969 C 464.277344 599.128906 464.824219 599.441406 465.386719 599.722656 C 465.945312 600.007812 466.519531 600.261719 467.105469 600.488281 C 467.695312 600.71875 468.289062 600.914062 468.898438 601.082031 C 469.503906 601.25 470.117188 601.386719 470.738281 601.492188 C 471.355469 601.601562 471.980469 601.675781 472.609375 601.722656 C 473.234375 601.765625 473.863281 601.78125 474.492188 601.761719 C 475.121094 601.746094 475.746094 601.699219 476.371094 601.617188 C 476.996094 601.539062 477.613281 601.429688 478.226562 601.289062 C 478.839844 601.148438 479.445312 600.976562 480.042969 600.777344 C 480.636719 600.574219 481.222656 600.347656 481.796875 600.085938 C 482.371094 599.828125 482.929688 599.542969 483.472656 599.226562 C 484.019531 598.914062 484.546875 598.574219 485.058594 598.207031 C 485.570312 597.839844 486.0625 597.449219 486.535156 597.035156 C 487.007812 596.617188 487.457031 596.179688 487.886719 595.722656 C 488.316406 595.261719 488.71875 594.78125 489.101562 594.28125 C 489.484375 593.78125 489.839844 593.261719 490.167969 592.726562 C 490.5 592.191406 490.800781 591.640625 491.074219 591.074219 C 491.351562 590.511719 491.597656 589.933594 491.816406 589.34375 C 492.035156 588.753906 492.222656 588.152344 492.378906 587.546875 L 569.742188 309.339844 C 569.910156 308.738281 570.050781 308.132812 570.160156 307.515625 C 570.265625 306.902344 570.34375 306.285156 570.390625 305.664062 C 570.441406 305.039062 570.457031 304.417969 570.441406 303.792969 C 570.429688 303.171875 570.386719 302.546875 570.308594 301.929688 C 570.234375 301.308594 570.128906 300.695312 569.996094 300.085938 C 569.859375 299.476562 569.695312 298.875 569.5 298.285156 C 569.304688 297.691406 569.082031 297.109375 568.828125 296.539062 C 568.578125 295.96875 568.296875 295.410156 567.992188 294.867188 C 567.683594 294.324219 567.351562 293.796875 566.992188 293.285156 C 566.636719 292.777344 566.253906 292.285156 565.84375 291.8125 C 565.4375 291.339844 565.007812 290.886719 564.558594 290.457031 C 564.105469 290.023438 563.632812 289.617188 563.140625 289.234375 C 562.652344 288.847656 562.140625 288.488281 561.613281 288.15625 C 561.085938 287.820312 560.546875 287.511719 559.988281 287.234375 C 559.429688 286.953125 558.859375 286.699219 558.277344 286.472656 C 557.695312 286.25 557.105469 286.054688 556.503906 285.886719 Z M 556.503906 285.886719 " fill-opacity="1" fill-rule="nonzero"/><g clip-path="url(#8462e4c638)"><path fill="#000000" d="M 942.746094 0.0625 L 82.648438 0.0625 C 81.316406 0.0664062 79.984375 0.105469 78.652344 0.175781 C 77.320312 0.246094 75.992188 0.347656 74.667969 0.484375 C 73.339844 0.621094 72.019531 0.789062 70.699219 0.988281 C 69.382812 1.1875 68.070312 1.421875 66.761719 1.683594 C 65.457031 1.949219 64.15625 2.246094 62.867188 2.574219 C 61.574219 2.902344 60.289062 3.261719 59.015625 3.652344 C 57.742188 4.042969 56.476562 4.464844 55.222656 4.917969 C 53.96875 5.371094 52.726562 5.855469 51.496094 6.367188 C 50.269531 6.882812 49.050781 7.425781 47.847656 8 C 46.644531 8.574219 45.457031 9.175781 44.28125 9.804688 C 43.109375 10.4375 41.949219 11.097656 40.808594 11.785156 C 39.667969 12.476562 38.542969 13.191406 37.4375 13.933594 C 36.332031 14.675781 35.242188 15.449219 34.175781 16.246094 C 33.105469 17.042969 32.058594 17.863281 31.03125 18.710938 C 30 19.558594 28.996094 20.433594 28.007812 21.328125 C 27.023438 22.226562 26.058594 23.148438 25.121094 24.09375 C 24.179688 25.039062 23.261719 26.003906 22.371094 26.996094 C 21.476562 27.984375 20.609375 28.996094 19.765625 30.027344 C 18.921875 31.058594 18.105469 32.109375 17.3125 33.183594 C 16.523438 34.253906 15.757812 35.347656 15.019531 36.457031 C 14.28125 37.566406 13.570312 38.691406 12.886719 39.835938 C 12.203125 40.980469 11.550781 42.140625 10.921875 43.316406 C 10.296875 44.496094 9.699219 45.6875 9.132812 46.890625 C 8.566406 48.097656 8.027344 49.316406 7.519531 50.546875 C 7.011719 51.78125 6.535156 53.023438 6.085938 54.28125 C 5.640625 55.535156 5.226562 56.800781 4.839844 58.078125 C 4.457031 59.351562 4.101562 60.636719 3.78125 61.929688 C 3.457031 63.222656 3.167969 64.523438 2.910156 65.832031 C 2.652344 67.136719 2.425781 68.449219 2.234375 69.769531 C 2.039062 71.089844 1.878906 72.410156 1.75 73.738281 C 1.621094 75.0625 1.523438 76.390625 1.460938 77.722656 C 1.398438 79.054688 1.367188 80.386719 1.367188 81.71875 L 1.367188 651.425781 C 1.367188 652.753906 1.402344 654.085938 1.46875 655.414062 C 1.535156 656.738281 1.632812 658.066406 1.765625 659.386719 C 1.898438 660.710938 2.0625 662.03125 2.257812 663.34375 C 2.453125 664.660156 2.683594 665.96875 2.941406 667.273438 C 3.203125 668.578125 3.496094 669.875 3.820312 671.164062 C 4.140625 672.453125 4.496094 673.734375 4.882812 675.003906 C 5.269531 676.277344 5.6875 677.539062 6.136719 678.789062 C 6.585938 680.042969 7.066406 681.28125 7.574219 682.507812 C 8.085938 683.738281 8.625 684.953125 9.191406 686.152344 C 9.761719 687.355469 10.359375 688.542969 10.988281 689.714844 C 11.613281 690.886719 12.269531 692.042969 12.953125 693.183594 C 13.636719 694.324219 14.351562 695.445312 15.089844 696.550781 C 15.828125 697.65625 16.59375 698.742188 17.386719 699.808594 C 18.179688 700.878906 18.996094 701.925781 19.839844 702.953125 C 20.683594 703.980469 21.550781 704.988281 22.445312 705.972656 C 23.339844 706.957031 24.253906 707.921875 25.195312 708.859375 C 26.136719 709.800781 27.097656 710.71875 28.085938 711.609375 C 29.070312 712.503906 30.078125 713.371094 31.105469 714.214844 C 32.132812 715.058594 33.179688 715.875 34.25 716.667969 C 35.316406 717.460938 36.402344 718.226562 37.507812 718.964844 C 38.613281 719.703125 39.738281 720.414062 40.878906 721.097656 C 42.019531 721.785156 43.175781 722.4375 44.347656 723.066406 C 45.519531 723.695312 46.707031 724.292969 47.910156 724.859375 C 49.113281 725.429688 50.328125 725.96875 51.554688 726.476562 C 52.785156 726.988281 54.023438 727.46875 55.277344 727.914062 C 56.527344 728.363281 57.789062 728.78125 59.0625 729.167969 C 60.335938 729.554688 61.617188 729.910156 62.90625 730.234375 C 64.195312 730.558594 65.492188 730.851562 66.796875 731.113281 C 68.101562 731.371094 69.410156 731.601562 70.726562 731.796875 C 72.042969 731.992188 73.359375 732.15625 74.683594 732.289062 C 76.007812 732.421875 77.332031 732.519531 78.660156 732.585938 C 79.992188 732.652344 81.320312 732.6875 82.648438 732.6875 L 942.746094 732.6875 C 944.074219 732.6875 945.40625 732.652344 946.734375 732.585938 C 948.0625 732.519531 949.386719 732.421875 950.710938 732.289062 C 952.035156 732.15625 953.355469 731.992188 954.667969 731.796875 C 955.984375 731.601562 957.292969 731.371094 958.597656 731.113281 C 959.902344 730.851562 961.199219 730.558594 962.488281 730.234375 C 963.78125 729.910156 965.0625 729.554688 966.332031 729.167969 C 967.605469 728.78125 968.867188 728.363281 970.121094 727.914062 C 971.371094 727.46875 972.613281 726.988281 973.839844 726.480469 C 975.070312 725.96875 976.285156 725.429688 977.484375 724.859375 C 978.6875 724.292969 979.875 723.695312 981.046875 723.066406 C 982.21875 722.4375 983.378906 721.785156 984.515625 721.101562 C 985.65625 720.414062 986.78125 719.703125 987.886719 718.964844 C 988.992188 718.226562 990.078125 717.460938 991.148438 716.667969 C 992.214844 715.875 993.261719 715.058594 994.292969 714.214844 C 995.320312 713.371094 996.324219 712.503906 997.3125 711.609375 C 998.296875 710.71875 999.257812 709.800781 1000.199219 708.859375 C 1001.140625 707.921875 1002.054688 706.957031 1002.949219 705.972656 C 1003.84375 704.988281 1004.710938 703.980469 1005.554688 702.953125 C 1006.398438 701.925781 1007.21875 700.878906 1008.007812 699.8125 C 1008.800781 698.742188 1009.566406 697.65625 1010.304688 696.550781 C 1011.046875 695.445312 1011.757812 694.324219 1012.441406 693.183594 C 1013.125 692.042969 1013.78125 690.886719 1014.40625 689.714844 C 1015.035156 688.542969 1015.632812 687.355469 1016.203125 686.152344 C 1016.773438 684.953125 1017.3125 683.738281 1017.820312 682.507812 C 1018.328125 681.28125 1018.808594 680.042969 1019.257812 678.789062 C 1019.707031 677.539062 1020.125 676.277344 1020.511719 675.003906 C 1020.898438 673.734375 1021.253906 672.453125 1021.578125 671.164062 C 1021.902344 669.875 1022.191406 668.578125 1022.453125 667.273438 C 1022.714844 665.96875 1022.941406 664.660156 1023.136719 663.34375 C 1023.335938 662.03125 1023.496094 660.710938 1023.628906 659.386719 C 1023.761719 658.066406 1023.859375 656.738281 1023.925781 655.414062 C 1023.992188 654.085938 1024.027344 652.753906 1024.027344 651.425781 L 1024.027344 81.71875 C 1024.03125 80.386719 1024 79.054688 1023.933594 77.722656 C 1023.871094 76.390625 1023.773438 75.0625 1023.644531 73.738281 C 1023.515625 72.410156 1023.355469 71.089844 1023.164062 69.769531 C 1022.96875 68.449219 1022.742188 67.136719 1022.484375 65.832031 C 1022.226562 64.523438 1021.9375 63.222656 1021.613281 61.929688 C 1021.292969 60.636719 1020.941406 59.351562 1020.554688 58.078125 C 1020.171875 56.800781 1019.753906 55.535156 1019.308594 54.28125 C 1018.859375 53.023438 1018.382812 51.78125 1017.875 50.546875 C 1017.367188 49.316406 1016.828125 48.097656 1016.261719 46.890625 C 1015.695312 45.683594 1015.097656 44.496094 1014.472656 43.316406 C 1013.847656 42.140625 1013.191406 40.980469 1012.507812 39.835938 C 1011.824219 38.691406 1011.113281 37.566406 1010.375 36.457031 C 1009.636719 35.347656 1008.875 34.253906 1008.082031 33.183594 C 1007.289062 32.109375 1006.472656 31.058594 1005.628906 30.027344 C 1004.785156 28.996094 1003.917969 27.984375 1003.023438 26.996094 C 1002.132812 26.003906 1001.214844 25.039062 1000.273438 24.09375 C 999.335938 23.148438 998.371094 22.226562 997.386719 21.328125 C 996.402344 20.433594 995.394531 19.558594 994.367188 18.710938 C 993.335938 17.863281 992.289062 17.042969 991.21875 16.246094 C 990.152344 15.449219 989.066406 14.675781 987.957031 13.933594 C 986.851562 13.191406 985.726562 12.476562 984.585938 11.785156 C 983.445312 11.097656 982.289062 10.4375 981.113281 9.804688 C 979.941406 9.175781 978.75 8.570312 977.546875 8 C 976.34375 7.425781 975.128906 6.882812 973.898438 6.367188 C 972.667969 5.855469 971.425781 5.371094 970.171875 4.917969 C 968.917969 4.464844 967.652344 4.042969 966.378906 3.652344 C 965.105469 3.261719 963.820312 2.902344 962.53125 2.574219 C 961.238281 2.246094 959.9375 1.949219 958.632812 1.683594 C 957.324219 1.421875 956.011719 1.1875 954.695312 0.988281 C 953.378906 0.789062 952.054688 0.621094 950.730469 0.484375 C 949.402344 0.347656 948.074219 0.246094 946.742188 0.175781 C 945.410156 0.105469 944.078125 0.0664062 942.746094 0.0625 Z M 39.414062 81.71875 C 39.410156 80.296875 39.476562 78.878906 39.609375 77.464844 C 39.742188 76.046875 39.945312 74.640625 40.21875 73.246094 C 40.492188 71.851562 40.832031 70.472656 41.238281 69.109375 C 41.644531 67.75 42.117188 66.410156 42.65625 65.09375 C 43.195312 63.777344 43.796875 62.492188 44.464844 61.234375 C 45.128906 59.980469 45.851562 58.757812 46.636719 57.574219 C 47.421875 56.386719 48.265625 55.242188 49.160156 54.140625 C 50.058594 53.039062 51.007812 51.980469 52.007812 50.972656 C 53.007812 49.960938 54.058594 49.003906 55.152344 48.09375 C 56.246094 47.1875 57.382812 46.335938 58.5625 45.542969 C 59.742188 44.746094 60.957031 44.007812 62.207031 43.332031 C 63.457031 42.65625 64.738281 42.042969 66.050781 41.492188 C 67.359375 40.941406 68.695312 40.457031 70.054688 40.035156 C 71.414062 39.613281 72.789062 39.261719 74.183594 38.976562 C 75.574219 38.691406 76.980469 38.476562 78.394531 38.328125 C 79.808594 38.179688 81.226562 38.105469 82.648438 38.09375 L 942.746094 38.09375 C 944.167969 38.105469 945.585938 38.179688 947 38.328125 C 948.414062 38.476562 949.820312 38.691406 951.214844 38.976562 C 952.605469 39.261719 953.980469 39.617188 955.339844 40.035156 C 956.699219 40.457031 958.035156 40.941406 959.34375 41.492188 C 960.65625 42.042969 961.9375 42.65625 963.1875 43.332031 C 964.4375 44.007812 965.652344 44.746094 966.832031 45.542969 C 968.011719 46.335938 969.148438 47.1875 970.242188 48.09375 C 971.335938 49.003906 972.386719 49.960938 973.386719 50.972656 C 974.386719 51.980469 975.335938 53.039062 976.234375 54.140625 C 977.132812 55.242188 977.972656 56.386719 978.757812 57.574219 C 979.542969 58.757812 980.265625 59.980469 980.933594 61.234375 C 981.597656 62.492188 982.199219 63.777344 982.738281 65.09375 C 983.277344 66.410156 983.75 67.75 984.15625 69.109375 C 984.566406 70.472656 984.90625 71.851562 985.175781 73.246094 C 985.449219 74.640625 985.652344 76.046875 985.785156 77.464844 C 985.921875 78.878906 985.984375 80.296875 985.980469 81.71875 L 985.980469 182.390625 L 39.414062 182.390625 Z M 942.746094 694.71875 L 82.648438 694.71875 C 81.234375 694.71875 79.820312 694.648438 78.414062 694.507812 C 77.003906 694.367188 75.605469 694.15625 74.214844 693.878906 C 72.828125 693.601562 71.457031 693.257812 70.101562 692.847656 C 68.746094 692.433594 67.417969 691.957031 66.109375 691.414062 C 64.800781 690.871094 63.523438 690.265625 62.273438 689.601562 C 61.027344 688.933594 59.816406 688.203125 58.636719 687.417969 C 57.460938 686.632812 56.324219 685.789062 55.230469 684.890625 C 54.136719 683.992188 53.089844 683.042969 52.089844 682.042969 C 51.085938 681.042969 50.136719 679.992188 49.238281 678.898438 C 48.339844 677.804688 47.5 676.671875 46.710938 675.492188 C 45.925781 674.316406 45.199219 673.105469 44.53125 671.855469 C 43.863281 670.609375 43.257812 669.332031 42.714844 668.023438 C 42.171875 666.714844 41.695312 665.386719 41.285156 664.03125 C 40.875 662.679688 40.527344 661.308594 40.253906 659.917969 C 39.976562 658.53125 39.765625 657.132812 39.625 655.726562 C 39.488281 654.316406 39.417969 652.90625 39.414062 651.488281 L 39.414062 220.460938 L 985.980469 220.460938 L 985.980469 651.488281 C 985.980469 652.90625 985.910156 654.316406 985.769531 655.726562 C 985.628906 657.132812 985.421875 658.53125 985.144531 659.917969 C 984.867188 661.308594 984.523438 662.679688 984.109375 664.03125 C 983.699219 665.386719 983.222656 666.714844 982.679688 668.023438 C 982.136719 669.332031 981.53125 670.609375 980.863281 671.855469 C 980.195312 673.105469 979.46875 674.316406 978.683594 675.492188 C 977.894531 676.671875 977.054688 677.804688 976.15625 678.898438 C 975.257812 679.992188 974.308594 681.042969 973.308594 682.042969 C 972.304688 683.042969 971.257812 683.992188 970.164062 684.890625 C 969.070312 685.789062 967.933594 686.632812 966.757812 687.417969 C 965.582031 688.203125 964.367188 688.933594 963.121094 689.601562 C 961.871094 690.265625 960.59375 690.871094 959.285156 691.414062 C 957.980469 691.957031 956.648438 692.433594 955.292969 692.847656 C 953.9375 693.257812 952.566406 693.601562 951.179688 693.878906 C 949.789062 694.15625 948.390625 694.367188 946.984375 694.507812 C 945.574219 694.648438 944.160156 694.71875 942.746094 694.71875 Z M 942.746094 694.71875 " fill-opacity="1" fill-rule="nonzero"/></g><path fill="#000000" d="M 124.195312 73.199219 C 122.984375 73.199219 121.773438 73.257812 120.5625 73.378906 C 119.355469 73.496094 118.15625 73.675781 116.964844 73.910156 C 115.777344 74.148438 114.601562 74.441406 113.4375 74.792969 C 112.277344 75.144531 111.136719 75.554688 110.011719 76.019531 C 108.890625 76.484375 107.796875 77 106.726562 77.574219 C 105.65625 78.144531 104.613281 78.765625 103.605469 79.441406 C 102.597656 80.117188 101.621094 80.835938 100.683594 81.605469 C 99.746094 82.375 98.847656 83.191406 97.988281 84.046875 C 97.128906 84.90625 96.316406 85.804688 95.546875 86.742188 C 94.773438 87.679688 94.054688 88.652344 93.378906 89.660156 C 92.703125 90.671875 92.082031 91.710938 91.507812 92.777344 C 90.933594 93.847656 90.417969 94.945312 89.953125 96.066406 C 89.488281 97.1875 89.078125 98.328125 88.726562 99.488281 C 88.371094 100.648438 88.078125 101.824219 87.839844 103.015625 C 87.605469 104.203125 87.425781 105.402344 87.304688 106.609375 C 87.1875 107.820312 87.125 109.027344 87.125 110.242188 C 87.125 111.457031 87.183594 112.667969 87.304688 113.875 C 87.421875 115.082031 87.597656 116.28125 87.835938 117.46875 C 88.070312 118.660156 88.367188 119.835938 88.71875 120.996094 C 89.070312 122.160156 89.476562 123.300781 89.941406 124.421875 C 90.40625 125.542969 90.925781 126.636719 91.496094 127.707031 C 92.066406 128.777344 92.691406 129.820312 93.363281 130.828125 C 94.039062 131.835938 94.761719 132.8125 95.53125 133.75 C 96.300781 134.6875 97.113281 135.585938 97.96875 136.445312 C 98.828125 137.300781 99.726562 138.117188 100.664062 138.886719 C 101.601562 139.65625 102.574219 140.378906 103.585938 141.054688 C 104.59375 141.730469 105.632812 142.351562 106.703125 142.925781 C 107.773438 143.496094 108.867188 144.015625 109.988281 144.480469 C 111.113281 144.945312 112.253906 145.355469 113.414062 145.707031 C 114.574219 146.0625 115.75 146.355469 116.941406 146.59375 C 118.132812 146.832031 119.332031 147.011719 120.539062 147.128906 C 121.746094 147.25 122.957031 147.308594 124.171875 147.3125 C 125.386719 147.3125 126.597656 147.253906 127.804688 147.136719 C 129.011719 147.015625 130.210938 146.839844 131.402344 146.605469 C 132.59375 146.367188 133.769531 146.074219 134.929688 145.722656 C 136.09375 145.371094 137.234375 144.964844 138.355469 144.5 C 139.480469 144.039062 140.574219 143.519531 141.644531 142.949219 C 142.71875 142.378906 143.757812 141.757812 144.765625 141.082031 C 145.777344 140.410156 146.75 139.6875 147.691406 138.917969 C 148.628906 138.148438 149.527344 137.335938 150.386719 136.480469 C 151.246094 135.621094 152.0625 134.726562 152.832031 133.789062 C 153.601562 132.851562 154.328125 131.878906 155 130.871094 C 155.675781 129.863281 156.300781 128.824219 156.875 127.753906 C 157.449219 126.683594 157.96875 125.589844 158.433594 124.46875 C 158.898438 123.347656 159.308594 122.207031 159.660156 121.046875 C 160.015625 119.886719 160.308594 118.710938 160.546875 117.519531 C 160.785156 116.332031 160.964844 115.132812 161.085938 113.925781 C 161.207031 112.714844 161.265625 111.507812 161.269531 110.292969 C 161.269531 109.078125 161.207031 107.867188 161.089844 106.660156 C 160.96875 105.453125 160.792969 104.25 160.554688 103.0625 C 160.320312 101.871094 160.023438 100.695312 159.671875 99.53125 C 159.320312 98.371094 158.910156 97.226562 158.445312 96.105469 C 157.980469 94.984375 157.464844 93.886719 156.890625 92.816406 C 156.320312 91.746094 155.695312 90.707031 155.023438 89.695312 C 154.347656 88.6875 153.625 87.710938 152.855469 86.773438 C 152.085938 85.835938 151.269531 84.9375 150.414062 84.078125 C 149.554688 83.21875 148.65625 82.402344 147.71875 81.632812 C 146.777344 80.863281 145.804688 80.140625 144.796875 79.464844 C 143.785156 78.789062 142.746094 78.164062 141.675781 77.589844 C 140.605469 77.019531 139.507812 76.5 138.386719 76.035156 C 137.265625 75.566406 136.121094 75.160156 134.960938 74.804688 C 133.796875 74.453125 132.621094 74.15625 131.429688 73.917969 C 130.238281 73.679688 129.039062 73.5 127.832031 73.382812 C 126.625 73.261719 125.410156 73.199219 124.195312 73.199219 Z M 123.21875 110.292969 C 123.25 110.042969 123.355469 109.835938 123.542969 109.667969 C 123.730469 109.5 123.953125 109.414062 124.203125 109.414062 C 124.453125 109.414062 124.675781 109.5 124.863281 109.667969 C 125.050781 109.835938 125.15625 110.042969 125.1875 110.292969 C 125.1875 111.320312 123.21875 111.332031 123.21875 110.292969 Z M 123.21875 110.292969 " fill-opacity="1" fill-rule="nonzero"/><path fill="#000000" d="M 251.746094 73.199219 C 250.53125 73.199219 249.320312 73.257812 248.109375 73.375 C 246.902344 73.492188 245.703125 73.671875 244.511719 73.90625 C 243.320312 74.140625 242.144531 74.4375 240.984375 74.789062 C 239.820312 75.136719 238.679688 75.546875 237.558594 76.007812 C 236.433594 76.472656 235.339844 76.992188 234.265625 77.5625 C 233.195312 78.132812 232.15625 78.753906 231.144531 79.429688 C 230.136719 80.101562 229.160156 80.824219 228.222656 81.59375 C 227.285156 82.363281 226.382812 83.175781 225.523438 84.03125 C 224.667969 84.890625 223.851562 85.789062 223.082031 86.726562 C 222.308594 87.664062 221.585938 88.636719 220.910156 89.644531 C 220.234375 90.652344 219.613281 91.691406 219.039062 92.761719 C 218.464844 93.832031 217.945312 94.925781 217.480469 96.046875 C 217.015625 97.167969 216.605469 98.308594 216.253906 99.472656 C 215.898438 100.632812 215.605469 101.808594 215.367188 102.996094 C 215.128906 104.1875 214.949219 105.386719 214.828125 106.59375 C 214.710938 107.800781 214.648438 109.011719 214.648438 110.226562 C 214.648438 111.4375 214.707031 112.648438 214.824219 113.859375 C 214.941406 115.066406 215.117188 116.265625 215.355469 117.453125 C 215.589844 118.644531 215.882812 119.820312 216.234375 120.984375 C 216.585938 122.144531 216.996094 123.285156 217.457031 124.40625 C 217.921875 125.527344 218.441406 126.625 219.011719 127.695312 C 219.582031 128.765625 220.203125 129.808594 220.878906 130.816406 C 221.550781 131.824219 222.273438 132.800781 223.042969 133.738281 C 223.8125 134.675781 224.625 135.578125 225.484375 136.433594 C 226.339844 137.292969 227.238281 138.109375 228.175781 138.878906 C 229.113281 139.648438 230.089844 140.371094 231.097656 141.046875 C 232.105469 141.722656 233.144531 142.347656 234.214844 142.921875 C 235.285156 143.492188 236.382812 144.011719 237.503906 144.476562 C 238.625 144.941406 239.765625 145.351562 240.925781 145.707031 C 242.085938 146.058594 243.265625 146.355469 244.453125 146.59375 C 245.644531 146.832031 246.84375 147.007812 248.050781 147.128906 C 249.261719 147.25 250.472656 147.308594 251.683594 147.3125 C 252.898438 147.3125 254.109375 147.253906 255.320312 147.136719 C 256.527344 147.019531 257.726562 146.839844 258.917969 146.605469 C 260.109375 146.371094 261.285156 146.078125 262.445312 145.726562 C 263.609375 145.375 264.75 144.96875 265.871094 144.503906 C 266.996094 144.039062 268.089844 143.523438 269.164062 142.953125 C 270.234375 142.382812 271.273438 141.757812 272.285156 141.085938 C 273.296875 140.414062 274.269531 139.691406 275.207031 138.921875 C 276.148438 138.152344 277.046875 137.339844 277.90625 136.484375 C 278.765625 135.625 279.582031 134.726562 280.351562 133.792969 C 281.125 132.855469 281.847656 131.882812 282.523438 130.871094 C 283.199219 129.863281 283.820312 128.824219 284.394531 127.753906 C 284.96875 126.6875 285.488281 125.589844 285.953125 124.46875 C 286.417969 123.347656 286.828125 122.207031 287.183594 121.046875 C 287.535156 119.886719 287.832031 118.710938 288.070312 117.519531 C 288.308594 116.332031 288.488281 115.132812 288.609375 113.925781 C 288.726562 112.71875 288.789062 111.507812 288.789062 110.292969 C 288.789062 109.078125 288.730469 107.867188 288.609375 106.660156 C 288.492188 105.453125 288.316406 104.253906 288.078125 103.0625 C 287.839844 101.875 287.546875 100.699219 287.195312 99.535156 C 286.84375 98.375 286.433594 97.234375 285.972656 96.113281 C 285.507812 94.992188 284.988281 93.894531 284.417969 92.824219 C 283.84375 91.753906 283.222656 90.714844 282.550781 89.703125 C 281.875 88.695312 281.152344 87.722656 280.382812 86.78125 C 279.613281 85.84375 278.800781 84.945312 277.941406 84.085938 C 277.085938 83.226562 276.1875 82.414062 275.25 81.640625 C 274.3125 80.871094 273.339844 80.148438 272.332031 79.472656 C 271.320312 78.796875 270.28125 78.171875 269.210938 77.601562 C 268.140625 77.027344 267.046875 76.507812 265.925781 76.039062 C 264.804688 75.574219 263.664062 75.164062 262.503906 74.8125 C 261.339844 74.457031 260.164062 74.160156 258.976562 73.921875 C 257.785156 73.683594 256.585938 73.503906 255.378906 73.382812 C 254.167969 73.261719 252.957031 73.203125 251.746094 73.199219 Z M 250.742188 110.292969 C 250.769531 110.042969 250.878906 109.835938 251.066406 109.667969 C 251.253906 109.5 251.472656 109.414062 251.726562 109.414062 C 251.976562 109.414062 252.195312 109.5 252.382812 109.667969 C 252.570312 109.835938 252.679688 110.042969 252.707031 110.292969 C 252.722656 111.332031 250.742188 111.320312 250.742188 110.292969 Z M 250.742188 110.292969 " fill-opacity="1" fill-rule="nonzero"/></svg>