<svg xmlns="http://www.w3.org/2000/svg" xmlns:xlink="http://www.w3.org/1999/xlink" width="1366" zoomAndPan="magnify" viewBox="0 0 1024.5 1023.74997" height="768" preserveAspectRatio="xMidYMid meet" version="1.0"><defs><clipPath id="miSVG"><path d="M 0 0.640625 L 1024 0.640625 L 1024 1023.375 L 0 1023.375 Z M 0 0.640625 " clip-rule="nonzero"/></clipPath></defs><g clip-path="url(#1677f1c194)"><path d="M 512 0.960938 C 503.617188 0.972656 495.238281 1.1875 486.867188 1.605469 C 478.496094 2.027344 470.136719 2.652344 461.796875 3.480469 C 453.453125 4.3125 445.136719 5.34375 436.847656 6.582031 C 428.554688 7.820312 420.300781 9.261719 412.078125 10.902344 C 403.859375 12.546875 395.683594 14.390625 387.554688 16.433594 C 379.425781 18.476562 371.347656 20.714844 363.328125 23.15625 C 355.308594 25.59375 347.351562 28.230469 339.460938 31.058594 C 331.570312 33.886719 323.753906 36.90625 316.011719 40.121094 C 308.269531 43.332031 300.609375 46.734375 293.03125 50.320312 C 285.457031 53.910156 277.972656 57.679688 270.582031 61.636719 C 263.1875 65.589844 255.898438 69.722656 248.710938 74.035156 C 241.523438 78.347656 234.441406 82.835938 227.472656 87.492188 C 220.503906 92.152344 213.65625 96.980469 206.921875 101.976562 C 200.191406 106.96875 193.585938 112.128906 187.105469 117.445312 C 180.625 122.765625 174.28125 128.238281 168.070312 133.871094 C 161.859375 139.5 155.789062 145.277344 149.863281 151.207031 C 143.933594 157.132812 138.15625 163.203125 132.527344 169.414062 C 126.894531 175.625 121.421875 181.96875 116.101562 188.449219 C 110.785156 194.929688 105.625 201.535156 100.632812 208.265625 C 95.636719 215 90.808594 221.847656 86.148438 228.816406 C 81.492188 235.785156 77.003906 242.867188 72.691406 250.054688 C 68.378906 257.242188 64.246094 264.53125 60.292969 271.925781 C 56.335938 279.316406 52.566406 286.800781 48.976562 294.375 C 45.390625 301.953125 41.988281 309.613281 38.777344 317.355469 C 35.566406 325.097656 32.542969 332.914062 29.714844 340.804688 C 26.886719 348.695312 24.25 356.652344 21.8125 364.671875 C 19.375 372.691406 17.132812 380.769531 15.089844 388.898438 C 13.046875 397.027344 11.203125 405.203125 9.558594 413.425781 C 7.917969 421.644531 6.476562 429.898438 5.242188 438.191406 C 4.003906 446.480469 2.96875 454.796875 2.140625 463.140625 C 1.308594 471.480469 0.683594 479.839844 0.261719 488.210938 C -0.15625 496.582031 -0.371094 504.960938 -0.382812 513.34375 C 27.769531 1193.089844 996.335938 1192.886719 1024.382812 513.339844 C 1024.375 504.957031 1024.160156 496.578125 1023.738281 488.207031 C 1023.320312 479.835938 1022.695312 471.476562 1021.863281 463.136719 C 1021.035156 454.792969 1020 446.480469 1018.761719 438.1875 C 1017.523438 429.898438 1016.082031 421.640625 1014.441406 413.421875 C 1012.796875 405.199219 1010.957031 397.023438 1008.914062 388.894531 C 1006.871094 380.765625 1004.628906 372.691406 1002.1875 364.667969 C 999.75 356.648438 997.117188 348.695312 994.285156 340.804688 C 991.457031 332.910156 988.4375 325.09375 985.222656 317.351562 C 982.011719 309.609375 978.609375 301.949219 975.023438 294.375 C 971.433594 286.796875 967.664062 279.3125 963.707031 271.921875 C 959.753906 264.53125 955.621094 257.242188 951.308594 250.050781 C 946.996094 242.863281 942.511719 235.785156 937.851562 228.816406 C 933.191406 221.847656 928.363281 214.996094 923.367188 208.265625 C 918.375 201.53125 913.214844 194.925781 907.898438 188.449219 C 902.578125 181.96875 897.105469 175.621094 891.472656 169.414062 C 885.84375 163.203125 880.066406 157.132812 874.136719 151.203125 C 868.210938 145.277344 862.140625 139.5 855.929688 133.867188 C 849.71875 128.238281 843.375 122.761719 836.894531 117.445312 C 830.414062 112.125 823.808594 106.96875 817.078125 101.972656 C 810.34375 96.980469 803.496094 92.152344 796.527344 87.492188 C 789.558594 82.832031 782.476562 78.347656 775.289062 74.035156 C 768.101562 69.722656 760.8125 65.589844 753.417969 61.632812 C 746.027344 57.679688 738.542969 53.910156 730.96875 50.320312 C 723.390625 46.734375 715.730469 43.332031 707.988281 40.121094 C 700.246094 36.90625 692.429688 33.886719 684.539062 31.058594 C 676.648438 28.226562 668.691406 25.59375 660.671875 23.15625 C 652.652344 20.714844 644.574219 18.476562 636.445312 16.433594 C 628.316406 14.386719 620.140625 12.546875 611.921875 10.902344 C 603.699219 9.261719 595.445312 7.820312 587.152344 6.582031 C 578.863281 5.34375 570.546875 4.3125 562.203125 3.480469 C 553.863281 2.652344 545.503906 2.027344 537.132812 1.605469 C 528.761719 1.1875 520.382812 0.972656 512 0.960938 Z M 673.171875 845.109375 C 397.867188 851.117188 157.015625 596.960938 178.625 321.796875 C 174.542969 216.691406 280.660156 159.722656 372.269531 187.203125 C 373.027344 187.410156 373.765625 187.671875 374.488281 187.988281 C 375.207031 188.304688 375.902344 188.667969 376.570312 189.085938 C 377.242188 189.5 377.875 189.960938 378.476562 190.464844 C 379.082031 190.972656 379.644531 191.519531 380.167969 192.105469 C 380.691406 192.695312 381.171875 193.316406 381.605469 193.972656 C 382.039062 194.625 382.425781 195.308594 382.761719 196.023438 C 383.097656 196.734375 383.382812 197.464844 383.613281 198.214844 C 383.84375 198.96875 384.023438 199.734375 384.144531 200.511719 L 417.539062 411.125 C 416.683594 436.730469 373.753906 450.285156 353.101562 456.777344 C 355.203125 462.933594 357.476562 469.027344 359.925781 475.058594 C 362.375 481.085938 364.992188 487.039062 367.78125 492.917969 C 370.570312 498.796875 373.523438 504.589844 376.640625 510.300781 C 379.761719 516.011719 383.042969 521.628906 386.480469 527.152344 C 389.921875 532.671875 393.519531 538.09375 397.269531 543.410156 C 401.019531 548.726562 404.917969 553.933594 408.964844 559.027344 C 413.011719 564.121094 417.203125 569.097656 421.535156 573.953125 C 425.867188 578.808594 430.335938 583.535156 434.9375 588.132812 C 439.539062 592.734375 444.269531 597.199219 449.125 601.527344 C 453.984375 605.859375 458.960938 610.042969 464.054688 614.089844 C 469.152344 618.136719 474.359375 622.03125 479.679688 625.777344 C 485 629.527344 490.421875 633.117188 495.945312 636.554688 C 501.46875 639.992188 507.089844 643.269531 512.800781 646.386719 C 518.511719 649.503906 524.308594 652.453125 530.1875 655.238281 C 536.070312 658.023438 542.023438 660.640625 548.054688 663.085938 C 554.082031 665.53125 560.179688 667.800781 566.339844 669.898438 C 573.058594 648.375 586.167969 606.308594 611.796875 605.402344 L 822.421875 638.777344 C 834.855469 639.785156 837.023438 655.691406 840.496094 664.894531 C 870.550781 770.273438 776.078125 857.921875 673.171875 845.109375 Z M 673.171875 845.109375 "/></g></svg>