<svg xmlns="http://www.w3.org/2000/svg" xmlns:xlink="http://www.w3.org/1999/xlink" width="1366" zoomAndPan="magnify" viewBox="0 0 1024.5 1017.74997" height="768" preserveAspectRatio="xMidYMid meet" version="1.0"><defs><clipPath id="24f1ca14e6"><path d="M 13 0.125 L 1024 0.125 L 1024 1013 L 13 1013 Z M 13 0.125 " clip-rule="nonzero"/></clipPath></defs><g clip-path="url(#24f1ca14e6)"><path fill="#000000" d="M 878.515625 144.910156 C 786.1875 51.183594 663.082031 0.824219 532.984375 0.824219 C 401.488281 0.824219 278.382812 52.582031 187.453125 144.910156 C 33.574219 298.789062 0 536.605469 104.917969 728.253906 L 13.988281 994.046875 C 12.589844 999.644531 13.988281 1005.238281 16.785156 1008.035156 C 19.585938 1010.832031 22.382812 1012.234375 26.578125 1012.234375 C 27.976562 1012.234375 29.378906 1012.234375 30.777344 1010.835938 L 296.566406 919.90625 C 486.820312 1023.425781 726.03125 989.851562 879.914062 837.371094 C 972.242188 745.042969 1024 621.9375 1024 491.839844 C 1022.601562 360.34375 972.242188 237.238281 878.515625 144.910156 Z M 858.929688 817.785156 C 713.441406 963.269531 484.023438 994.046875 303.5625 891.925781 C 300.765625 890.527344 296.570312 889.128906 292.371094 890.527344 L 48.960938 974.460938 L 132.894531 731.050781 C 134.296875 726.855469 134.296875 722.660156 131.496094 719.859375 C 29.378906 539.402344 60.152344 309.980469 205.640625 164.496094 C 293.769531 76.363281 408.480469 28.800781 532.984375 28.800781 C 656.085938 28.800781 772.195312 77.761719 858.929688 164.496094 C 947.058594 251.226562 994.625 367.335938 994.625 490.441406 C 994.625 613.542969 947.058594 729.652344 858.929688 817.785156 Z M 858.929688 817.785156 " fill-opacity="1" fill-rule="nonzero"/></g><path fill="#000000" d="M 787.585938 574.375 C 756.808594 564.582031 727.433594 550.59375 699.453125 536.605469 C 682.667969 526.8125 660.285156 529.609375 644.894531 544.996094 L 612.722656 575.773438 C 598.730469 589.761719 573.550781 589.761719 558.164062 575.773438 L 449.050781 465.261719 C 440.65625 456.867188 436.460938 447.074219 436.460938 437.28125 C 436.460938 427.488281 440.65625 419.097656 449.050781 410.703125 L 479.824219 378.527344 C 493.8125 364.539062 496.613281 342.15625 486.820312 325.371094 C 471.433594 297.390625 458.839844 268.015625 449.050781 237.238281 C 442.054688 214.855469 416.875 200.867188 394.492188 207.859375 L 282.578125 237.238281 C 269.988281 240.035156 260.195312 248.429688 254.601562 259.621094 C 249.003906 270.8125 247.605469 283.402344 251.804688 295.992188 C 324.546875 522.613281 503.605469 701.675781 730.230469 774.417969 C 734.425781 775.816406 740.023438 777.214844 744.21875 777.214844 C 751.214844 777.214844 759.605469 775.816406 766.601562 771.621094 C 777.792969 766.023438 786.1875 754.832031 788.984375 743.644531 L 818.359375 631.730469 C 822.558594 605.152344 809.96875 581.371094 787.585938 574.375 Z M 790.382812 621.9375 L 761.003906 733.851562 C 759.605469 738.046875 756.808594 742.242188 752.613281 745.042969 C 748.414062 747.839844 742.820312 747.839844 738.625 746.441406 C 520.394531 676.496094 348.328125 504.429688 278.382812 286.199219 C 276.984375 282.003906 276.984375 276.40625 279.78125 272.210938 C 282.578125 268.015625 285.378906 265.214844 290.972656 263.816406 L 402.886719 234.441406 C 404.285156 234.441406 405.683594 234.441406 407.082031 234.441406 C 414.078125 234.441406 421.070312 238.636719 423.867188 247.03125 C 433.660156 277.804688 447.652344 309.980469 463.039062 337.960938 C 467.234375 344.953125 465.835938 353.347656 460.242188 358.941406 L 429.464844 391.117188 C 416.875 403.707031 409.878906 419.097656 408.480469 437.28125 C 408.480469 455.46875 415.476562 472.253906 428.066406 486.242188 L 537.179688 596.757812 C 563.757812 621.9375 605.726562 621.9375 630.90625 596.757812 L 663.082031 564.582031 C 668.679688 558.988281 677.070312 557.589844 684.066406 561.785156 C 713.441406 577.171875 744.21875 591.160156 776.394531 602.351562 C 787.585938 603.75 791.78125 612.144531 790.382812 621.9375 Z M 790.382812 621.9375 " fill-opacity="1" fill-rule="nonzero"/></svg>