<svg xmlns="http://www.w3.org/2000/svg" xmlns:xlink="http://www.w3.org/1999/xlink" width="1366" zoomAndPan="magnify" viewBox="0 0 1024.5 1026.749974" height="768" preserveAspectRatio="xMidYMid meet" version="1.0"><defs><clipPath id="a897ff7e09"><path d="M 1 0.125 L 1024 0.125 L 1024 1024 L 1 1024 Z M 1 0.125 " clip-rule="nonzero"/></clipPath></defs><g clip-path="url(#a897ff7e09)"><path fill="#000000" d="M 898.511719 0.855469 L 129.347656 0.855469 C 127.308594 0.828125 125.273438 0.847656 123.238281 0.917969 C 121.203125 0.992188 119.167969 1.113281 117.140625 1.28125 C 115.109375 1.449219 113.085938 1.667969 111.066406 1.9375 C 109.046875 2.203125 107.035156 2.519531 105.03125 2.886719 C 103.027344 3.25 101.03125 3.664062 99.046875 4.125 C 97.0625 4.585938 95.089844 5.09375 93.132812 5.652344 C 91.171875 6.207031 89.226562 6.8125 87.296875 7.460938 C 85.367188 8.113281 83.453125 8.808594 81.554688 9.554688 C 79.660156 10.296875 77.78125 11.085938 75.921875 11.917969 C 74.0625 12.753906 72.226562 13.632812 70.410156 14.554688 C 68.59375 15.476562 66.800781 16.445312 65.03125 17.453125 C 63.261719 18.464844 61.519531 19.515625 59.800781 20.609375 C 58.082031 21.703125 56.390625 22.835938 54.726562 24.011719 C 53.066406 25.1875 51.429688 26.40625 49.824219 27.660156 C 48.222656 28.914062 46.648438 30.207031 45.105469 31.539062 C 43.5625 32.867188 42.054688 34.234375 40.578125 35.640625 C 39.101562 37.042969 37.660156 38.484375 36.253906 39.957031 C 34.847656 41.429688 33.476562 42.9375 32.144531 44.476562 C 30.808594 46.015625 29.515625 47.585938 28.257812 49.191406 C 27 50.792969 25.78125 52.425781 24.601562 54.085938 C 23.421875 55.746094 22.285156 57.4375 21.1875 59.152344 C 20.089844 60.871094 19.035156 62.609375 18.023438 64.378906 C 17.011719 66.144531 16.039062 67.9375 15.113281 69.75 C 14.1875 71.566406 13.304688 73.402344 12.46875 75.257812 C 11.632812 77.117188 10.839844 78.992188 10.09375 80.886719 C 9.347656 82.78125 8.644531 84.695312 7.992188 86.625 C 7.335938 88.554688 6.730469 90.496094 6.167969 92.457031 C 5.609375 94.414062 5.097656 96.386719 4.632812 98.367188 C 4.167969 100.351562 3.75 102.34375 3.382812 104.347656 C 3.015625 106.351562 2.695312 108.363281 2.421875 110.382812 C 2.152344 112.402344 1.929688 114.425781 1.757812 116.457031 C 1.582031 118.484375 1.457031 120.519531 1.382812 122.554688 C 0.726562 140.035156 1.382812 157.660156 1.382812 175.210938 L 1.382812 890.335938 C 1.164062 902.917969 2.328125 915.375 4.878906 927.699219 C 5.523438 930.261719 6.246094 932.804688 7.046875 935.320312 C 7.847656 937.839844 8.730469 940.332031 9.6875 942.796875 C 10.644531 945.257812 11.679688 947.6875 12.792969 950.085938 C 13.902344 952.484375 15.089844 954.847656 16.347656 957.171875 C 17.605469 959.496094 18.9375 961.777344 20.339844 964.019531 C 21.742188 966.257812 23.214844 968.453125 24.753906 970.601562 C 26.296875 972.75 27.902344 974.847656 29.574219 976.894531 C 31.246094 978.941406 32.980469 980.933594 34.777344 982.871094 C 36.574219 984.808594 38.433594 986.691406 40.347656 988.511719 C 42.261719 990.332031 44.234375 992.09375 46.257812 993.789062 C 48.285156 995.488281 50.363281 997.121094 52.492188 998.6875 C 54.617188 1000.257812 56.792969 1001.757812 59.015625 1003.1875 C 61.238281 1004.617188 63.503906 1005.976562 65.8125 1007.265625 C 68.121094 1008.554688 70.464844 1009.769531 72.851562 1010.910156 C 75.234375 1012.050781 77.652344 1013.117188 80.101562 1014.109375 C 82.554688 1015.097656 85.035156 1016.007812 87.542969 1016.84375 C 95.808594 1019.277344 104.21875 1021.003906 112.777344 1022.019531 C 121.335938 1023.035156 129.917969 1023.324219 138.523438 1022.886719 L 512.582031 1022.886719 C 533.703125 1022.886719 533.703125 990.113281 512.582031 990.113281 L 129.855469 990.113281 C 126.804688 990.195312 123.753906 990.128906 120.703125 989.914062 C 117.65625 989.699219 114.628906 989.335938 111.613281 988.828125 C 108.601562 988.320312 105.621094 987.671875 102.671875 986.875 C 99.722656 986.078125 96.816406 985.140625 93.960938 984.0625 C 91.101562 982.984375 88.300781 981.773438 85.558594 980.421875 C 82.816406 979.074219 80.148438 977.597656 77.550781 975.992188 C 74.953125 974.382812 72.4375 972.65625 70.007812 970.804688 C 67.574219 968.953125 65.238281 966.992188 63 964.914062 C 60.710938 962.734375 58.539062 960.445312 56.484375 958.042969 C 54.429688 955.640625 52.507812 953.136719 50.710938 950.539062 C 48.914062 947.9375 47.257812 945.253906 45.734375 942.480469 C 44.214844 939.710938 42.84375 936.871094 41.613281 933.957031 C 40.386719 931.046875 39.3125 928.078125 38.386719 925.054688 C 37.464844 922.03125 36.699219 918.972656 36.089844 915.871094 C 35.484375 912.769531 35.035156 909.644531 34.75 906.496094 C 34.464844 903.351562 34.339844 900.195312 34.375 897.035156 L 34.375 127.578125 C 34.359375 126.058594 34.378906 124.539062 34.4375 123.019531 C 34.496094 121.5 34.589844 119.980469 34.722656 118.464844 C 34.855469 116.949219 35.023438 115.4375 35.230469 113.933594 C 35.4375 112.425781 35.683594 110.925781 35.960938 109.429688 C 36.242188 107.933594 36.558594 106.445312 36.914062 104.96875 C 37.265625 103.488281 37.65625 102.019531 38.082031 100.558594 C 38.507812 99.097656 38.96875 97.648438 39.464844 96.210938 C 39.960938 94.773438 40.492188 93.347656 41.058594 91.9375 C 41.625 90.527344 42.226562 89.128906 42.859375 87.746094 C 43.496094 86.363281 44.164062 85 44.867188 83.648438 C 45.570312 82.300781 46.304688 80.96875 47.070312 79.65625 C 47.839844 78.34375 48.640625 77.050781 49.46875 75.777344 C 50.300781 74.503906 51.164062 73.25 52.054688 72.019531 C 52.949219 70.785156 53.871094 69.578125 54.820312 68.390625 C 55.773438 67.203125 56.753906 66.042969 57.761719 64.902344 C 58.773438 63.765625 59.808594 62.652344 60.871094 61.566406 C 61.9375 60.480469 63.027344 59.417969 64.140625 58.382812 C 65.257812 57.351562 66.398438 56.34375 67.5625 55.367188 C 68.726562 54.390625 69.917969 53.441406 71.128906 52.523438 C 72.339844 51.601562 73.574219 50.714844 74.828125 49.855469 C 76.085938 48.996094 77.359375 48.167969 78.65625 47.371094 C 79.953125 46.574219 81.265625 45.8125 82.601562 45.078125 C 83.933594 44.347656 85.285156 43.648438 86.652344 42.984375 C 88.019531 42.320312 89.402344 41.6875 90.800781 41.089844 C 92.199219 40.492188 93.613281 39.929688 95.039062 39.402344 C 96.464844 38.875 97.90625 38.382812 99.355469 37.925781 C 100.804688 37.464844 102.265625 37.046875 103.738281 36.660156 C 105.210938 36.273438 106.6875 35.925781 108.175781 35.609375 C 109.667969 35.296875 111.160156 35.023438 112.664062 34.78125 C 114.164062 34.542969 115.671875 34.339844 117.183594 34.175781 C 118.695312 34.007812 120.210938 33.878906 121.730469 33.789062 C 123.246094 33.699219 124.769531 33.644531 126.289062 33.628906 L 896.546875 33.628906 C 898.066406 33.597656 899.585938 33.605469 901.105469 33.648438 C 902.625 33.695312 904.140625 33.777344 905.65625 33.894531 C 907.171875 34.015625 908.683594 34.167969 910.191406 34.363281 C 911.699219 34.554688 913.203125 34.785156 914.699219 35.054688 C 916.195312 35.320312 917.683594 35.625 919.164062 35.964844 C 920.648438 36.304688 922.121094 36.679688 923.582031 37.09375 C 925.046875 37.507812 926.496094 37.953125 927.9375 38.4375 C 929.378906 38.921875 930.808594 39.441406 932.222656 39.996094 C 933.640625 40.546875 935.039062 41.136719 936.425781 41.757812 C 937.8125 42.382812 939.183594 43.039062 940.539062 43.730469 C 941.894531 44.417969 943.230469 45.140625 944.546875 45.898438 C 945.867188 46.652344 947.167969 47.441406 948.449219 48.261719 C 949.726562 49.078125 950.988281 49.929688 952.226562 50.8125 C 953.464844 51.691406 954.679688 52.605469 955.875 53.546875 C 957.066406 54.484375 958.238281 55.457031 959.382812 56.453125 C 960.53125 57.453125 961.652344 58.480469 962.746094 59.53125 C 963.84375 60.585938 964.910156 61.667969 965.953125 62.773438 C 966.996094 63.878906 968.011719 65.007812 969 66.164062 C 969.984375 67.320312 970.945312 68.5 971.875 69.703125 C 972.800781 70.90625 973.703125 72.132812 974.570312 73.378906 C 975.441406 74.625 976.277344 75.894531 977.085938 77.183594 C 977.890625 78.46875 978.667969 79.777344 979.410156 81.105469 C 980.152344 82.429688 980.859375 83.773438 981.539062 85.136719 C 982.214844 86.496094 982.855469 87.875 983.464844 89.265625 C 984.074219 90.660156 984.648438 92.066406 985.1875 93.488281 C 985.730469 94.90625 986.234375 96.339844 986.703125 97.785156 C 987.171875 99.234375 987.605469 100.6875 988.003906 102.15625 C 988.402344 103.625 988.765625 105.097656 989.089844 106.582031 C 989.414062 108.070312 989.703125 109.558594 989.957031 111.058594 C 990.207031 112.558594 990.425781 114.0625 990.601562 115.574219 C 990.78125 117.082031 990.921875 118.59375 991.027344 120.113281 C 991.128906 121.628906 991.195312 123.144531 991.226562 124.667969 L 991.226562 895.214844 C 991.378906 903.742188 990.425781 912.140625 988.363281 920.417969 C 986.300781 928.691406 983.203125 936.554688 979.0625 944.011719 C 978.058594 945.761719 976.992188 947.476562 975.875 949.15625 C 974.753906 950.835938 973.582031 952.476562 972.355469 954.078125 C 971.125 955.679688 969.847656 957.238281 968.515625 958.757812 C 967.1875 960.273438 965.808594 961.746094 964.378906 963.175781 C 962.953125 964.601562 961.480469 965.980469 959.964844 967.308594 C 958.445312 968.640625 956.886719 969.917969 955.28125 971.144531 C 953.679688 972.375 952.039062 973.546875 950.359375 974.667969 C 948.679688 975.785156 946.96875 976.851562 945.21875 977.855469 C 943.46875 978.863281 941.6875 979.8125 939.875 980.699219 C 938.066406 981.589844 936.226562 982.417969 934.359375 983.1875 C 932.492188 983.957031 930.605469 984.660156 928.691406 985.304688 C 926.777344 985.949219 924.847656 986.53125 922.894531 987.046875 C 920.945312 987.5625 918.976562 988.015625 916.996094 988.402344 C 915.015625 988.792969 913.027344 989.113281 911.023438 989.371094 C 909.023438 989.625 907.011719 989.816406 905 989.941406 C 902.984375 990.066406 900.96875 990.121094 898.949219 990.113281 L 782.421875 990.113281 C 761.300781 990.113281 761.300781 1022.886719 782.421875 1022.886719 L 843.746094 1022.886719 C 864.792969 1022.886719 886.132812 1023.90625 907.179688 1022.886719 C 909.816406 1022.699219 912.449219 1022.425781 915.070312 1022.070312 C 917.691406 1021.714844 920.296875 1021.277344 922.890625 1020.753906 C 925.484375 1020.234375 928.058594 1019.632812 930.613281 1018.949219 C 933.171875 1018.269531 935.703125 1017.507812 938.210938 1016.664062 C 940.71875 1015.820312 943.195312 1014.902344 945.644531 1013.902344 C 948.09375 1012.902344 950.507812 1011.828125 952.890625 1010.675781 C 955.273438 1009.527344 957.617188 1008.300781 959.921875 1007.003906 C 962.222656 1005.703125 964.484375 1004.332031 966.703125 1002.890625 C 968.921875 1001.449219 971.089844 999.941406 973.214844 998.359375 C 975.335938 996.78125 977.40625 995.140625 979.425781 993.429688 C 981.445312 991.71875 983.40625 989.949219 985.316406 988.117188 C 987.222656 986.28125 989.070312 984.390625 990.859375 982.441406 C 992.644531 980.492188 994.371094 978.488281 996.03125 976.429688 C 997.691406 974.371094 999.289062 972.261719 1000.816406 970.105469 C 1002.34375 967.945312 1003.804688 965.742188 1005.191406 963.488281 C 1006.582031 961.238281 1007.898438 958.945312 1009.144531 956.613281 C 1011.601562 951.863281 1013.761719 946.980469 1015.621094 941.964844 C 1017.480469 936.949219 1019.023438 931.839844 1020.25 926.632812 C 1021.476562 921.425781 1022.378906 916.164062 1022.960938 910.847656 C 1023.539062 905.53125 1023.789062 900.199219 1023.707031 894.851562 L 1023.707031 125.757812 C 1023.691406 123.714844 1023.625 121.675781 1023.511719 119.636719 C 1023.394531 117.597656 1023.230469 115.5625 1023.015625 113.53125 C 1022.800781 111.496094 1022.535156 109.472656 1022.222656 107.453125 C 1021.910156 105.4375 1021.546875 103.425781 1021.136719 101.425781 C 1020.722656 99.425781 1020.265625 97.433594 1019.757812 95.457031 C 1019.246094 93.476562 1018.691406 91.511719 1018.089844 89.5625 C 1017.484375 87.609375 1016.832031 85.675781 1016.136719 83.753906 C 1015.4375 81.835938 1014.695312 79.933594 1013.902344 78.050781 C 1013.113281 76.167969 1012.277344 74.304688 1011.394531 72.460938 C 1010.515625 70.617188 1009.589844 68.796875 1008.621094 67 C 1007.652344 65.199219 1006.636719 63.425781 1005.582031 61.679688 C 1004.527344 59.929688 1003.429688 58.207031 1002.289062 56.511719 C 1001.148438 54.820312 999.96875 53.152344 998.746094 51.515625 C 997.527344 49.875 996.265625 48.269531 994.96875 46.691406 C 993.667969 45.117188 992.332031 43.574219 990.957031 42.0625 C 989.582031 40.550781 988.171875 39.074219 986.726562 37.628906 C 985.28125 36.1875 983.800781 34.78125 982.285156 33.410156 C 980.769531 32.039062 979.222656 30.707031 977.644531 29.410156 C 976.066406 28.117188 974.457031 26.859375 972.816406 25.644531 C 971.175781 24.425781 969.503906 23.25 967.808594 22.113281 C 966.109375 20.976562 964.386719 19.882812 962.632812 18.832031 C 960.882812 17.78125 959.109375 16.769531 957.308594 15.804688 C 955.507812 14.839844 953.683594 13.917969 951.839844 13.042969 C 949.996094 12.164062 948.128906 11.332031 946.246094 10.546875 C 944.359375 9.761719 942.457031 9.023438 940.535156 8.328125 C 938.613281 7.636719 936.675781 6.988281 934.722656 6.390625 C 932.769531 5.789062 930.804688 5.238281 928.824219 4.734375 C 926.84375 4.234375 924.855469 3.777344 922.851562 3.371094 C 920.851562 2.964844 918.839844 2.605469 916.820312 2.296875 C 914.800781 1.988281 912.777344 1.730469 910.742188 1.519531 C 908.710938 1.308594 906.675781 1.148438 904.636719 1.039062 C 902.597656 0.925781 900.554688 0.867188 898.511719 0.855469 Z M 898.511719 0.855469 " fill-opacity="1" fill-rule="nonzero"/></g><path fill="#000000" d="M 512.511719 239.59375 C 508.050781 239.59375 503.59375 239.703125 499.140625 239.925781 C 494.6875 240.144531 490.242188 240.472656 485.804688 240.910156 C 481.367188 241.351562 476.945312 241.898438 472.535156 242.550781 C 468.125 243.207031 463.734375 243.972656 459.359375 244.839844 C 454.988281 245.710938 450.636719 246.691406 446.3125 247.773438 C 441.988281 248.859375 437.691406 250.050781 433.425781 251.34375 C 429.160156 252.640625 424.929688 254.039062 420.730469 255.542969 C 416.53125 257.046875 412.375 258.652344 408.253906 260.359375 C 404.136719 262.066406 400.0625 263.871094 396.03125 265.78125 C 392 267.6875 388.019531 269.691406 384.089844 271.796875 C 380.15625 273.898438 376.277344 276.097656 372.457031 278.390625 C 368.632812 280.683594 364.867188 283.066406 361.160156 285.546875 C 357.453125 288.023438 353.808594 290.589844 350.226562 293.25 C 346.648438 295.90625 343.132812 298.648438 339.6875 301.476562 C 336.242188 304.308594 332.867188 307.21875 329.5625 310.214844 C 326.261719 313.210938 323.035156 316.285156 319.882812 319.4375 C 316.730469 322.589844 313.65625 325.820312 310.664062 329.125 C 307.667969 332.429688 304.757812 335.804688 301.929688 339.25 C 299.101562 342.699219 296.363281 346.214844 293.707031 349.796875 C 291.050781 353.378906 288.484375 357.023438 286.007812 360.730469 C 283.53125 364.4375 281.148438 368.203125 278.855469 372.027344 C 276.566406 375.855469 274.371094 379.734375 272.269531 383.664062 C 270.167969 387.597656 268.164062 391.582031 266.257812 395.609375 C 264.351562 399.640625 262.546875 403.71875 260.84375 407.835938 C 259.136719 411.957031 257.53125 416.117188 256.03125 420.3125 C 254.53125 424.511719 253.132812 428.746094 251.839844 433.011719 C 250.546875 437.28125 249.359375 441.574219 248.277344 445.902344 C 247.191406 450.226562 246.21875 454.574219 245.347656 458.949219 C 244.480469 463.320312 243.71875 467.714844 243.0625 472.125 C 242.410156 476.535156 241.867188 480.960938 241.429688 485.398438 C 240.992188 489.835938 240.667969 494.28125 240.449219 498.734375 C 240.230469 503.1875 240.121094 507.640625 240.121094 512.101562 C 240.125 516.558594 240.234375 521.015625 240.453125 525.46875 C 240.671875 529.921875 241 534.367188 241.441406 538.804688 C 241.878906 543.242188 242.421875 547.667969 243.078125 552.078125 C 243.734375 556.488281 244.496094 560.878906 245.367188 565.25 C 246.238281 569.625 247.214844 573.972656 248.300781 578.296875 C 249.382812 582.625 250.574219 586.917969 251.867188 591.1875 C 253.164062 595.453125 254.5625 599.683594 256.0625 603.882812 C 257.566406 608.082031 259.171875 612.238281 260.878906 616.359375 C 262.585938 620.476562 264.394531 624.550781 266.300781 628.582031 C 268.207031 632.613281 270.210938 636.59375 272.3125 640.527344 C 274.417969 644.457031 276.613281 648.335938 278.90625 652.160156 C 281.199219 655.984375 283.585938 659.75 286.0625 663.457031 C 288.539062 667.164062 291.109375 670.808594 293.765625 674.386719 C 296.421875 677.96875 299.164062 681.480469 301.992188 684.929688 C 304.820312 688.375 307.734375 691.75 310.726562 695.054688 C 313.722656 698.355469 316.796875 701.585938 319.949219 704.738281 C 323.105469 707.890625 326.332031 710.960938 329.636719 713.957031 C 332.941406 716.949219 336.316406 719.859375 339.761719 722.6875 C 343.210938 725.515625 346.722656 728.257812 350.304688 730.914062 C 353.886719 733.570312 357.53125 736.136719 361.238281 738.613281 C 364.949219 741.089844 368.714844 743.472656 372.539062 745.765625 C 376.363281 748.058594 380.242188 750.253906 384.175781 752.355469 C 388.105469 754.457031 392.089844 756.460938 396.121094 758.367188 C 400.148438 760.273438 404.226562 762.078125 408.34375 763.785156 C 412.464844 765.488281 416.625 767.09375 420.820312 768.59375 C 425.019531 770.097656 429.253906 771.496094 433.519531 772.789062 C 437.785156 774.082031 442.082031 775.269531 446.40625 776.355469 C 450.734375 777.4375 455.082031 778.414062 459.457031 779.28125 C 463.828125 780.152344 468.21875 780.914062 472.632812 781.566406 C 477.042969 782.222656 481.464844 782.765625 485.902344 783.203125 C 490.339844 783.640625 494.785156 783.96875 499.238281 784.1875 C 503.691406 784.402344 508.148438 784.511719 512.605469 784.511719 C 517.066406 784.511719 521.523438 784.402344 525.976562 784.183594 C 530.429688 783.964844 534.875 783.636719 539.3125 783.199219 C 543.75 782.761719 548.171875 782.214844 552.582031 781.558594 C 556.992188 780.90625 561.386719 780.144531 565.757812 779.273438 C 570.132812 778.402344 574.480469 777.425781 578.804688 776.34375 C 583.128906 775.257812 587.425781 774.070312 591.691406 772.773438 C 595.960938 771.480469 600.191406 770.082031 604.390625 768.578125 C 608.585938 767.078125 612.746094 765.472656 616.867188 763.765625 C 620.984375 762.058594 625.058594 760.253906 629.089844 758.347656 C 633.121094 756.4375 637.101562 754.433594 641.035156 752.332031 C 644.964844 750.230469 648.84375 748.035156 652.667969 745.742188 C 656.492188 743.449219 660.257812 741.0625 663.964844 738.585938 C 667.671875 736.109375 671.316406 733.542969 674.898438 730.886719 C 678.480469 728.230469 681.992188 725.488281 685.441406 722.660156 C 688.886719 719.828125 692.261719 716.917969 695.566406 713.921875 C 698.867188 710.929688 702.097656 707.855469 705.25 704.703125 C 708.402344 701.550781 711.476562 698.320312 714.46875 695.015625 C 717.464844 691.714844 720.375 688.339844 723.203125 684.890625 C 726.03125 681.445312 728.773438 677.929688 731.429688 674.347656 C 734.085938 670.765625 736.652344 667.125 739.128906 663.414062 C 741.605469 659.707031 743.992188 655.941406 746.285156 652.117188 C 748.574219 648.292969 750.773438 644.414062 752.875 640.484375 C 754.976562 636.550781 756.980469 632.570312 758.886719 628.539062 C 760.792969 624.507812 762.597656 620.433594 764.304688 616.3125 C 766.011719 612.195312 767.617188 608.035156 769.117188 603.835938 C 770.621094 599.636719 772.019531 595.40625 773.3125 591.140625 C 774.605469 586.871094 775.796875 582.578125 776.878906 578.25 C 777.960938 573.925781 778.9375 569.578125 779.808594 565.203125 C 780.679688 560.832031 781.441406 556.4375 782.09375 552.027344 C 782.75 547.617188 783.292969 543.195312 783.730469 538.757812 C 784.167969 534.320312 784.496094 529.875 784.714844 525.421875 C 784.933594 520.96875 785.042969 516.511719 785.042969 512.054688 C 785.042969 507.59375 784.933594 503.136719 784.714844 498.679688 C 784.496094 494.226562 784.167969 489.78125 783.730469 485.34375 C 783.292969 480.902344 782.746094 476.480469 782.09375 472.066406 C 781.4375 467.65625 780.675781 463.261719 779.804688 458.890625 C 778.933594 454.515625 777.957031 450.164062 776.875 445.839844 C 775.789062 441.511719 774.601562 437.214844 773.308594 432.949219 C 772.011719 428.679688 770.613281 424.449219 769.109375 420.25 C 767.609375 416.050781 766.003906 411.890625 764.296875 407.769531 C 762.589844 403.648438 760.78125 399.574219 758.875 395.542969 C 756.96875 391.511719 754.964844 387.527344 752.859375 383.597656 C 750.757812 379.664062 748.558594 375.785156 746.265625 371.957031 C 743.972656 368.132812 741.585938 364.367188 739.109375 360.660156 C 736.632812 356.953125 734.0625 353.308594 731.40625 349.726562 C 728.75 346.144531 726.007812 342.628906 723.175781 339.179688 C 720.347656 335.734375 717.433594 332.359375 714.4375 329.054688 C 711.445312 325.75 708.371094 322.523438 705.214844 319.367188 C 702.0625 316.214844 698.832031 313.140625 695.527344 310.148438 C 692.222656 307.152344 688.84375 304.242188 685.398438 301.414062 C 681.949219 298.582031 678.433594 295.839844 674.851562 293.183594 C 671.269531 290.527344 667.625 287.960938 663.914062 285.484375 C 660.207031 283.007812 656.441406 280.625 652.613281 278.332031 C 648.789062 276.039062 644.910156 273.84375 640.976562 271.742188 C 637.042969 269.640625 633.058594 267.636719 629.027344 265.730469 C 624.996094 263.824219 620.917969 262.019531 616.796875 260.3125 C 612.675781 258.605469 608.515625 257.003906 604.316406 255.5 C 600.117188 254 595.886719 252.601562 591.617188 251.308594 C 587.347656 250.015625 583.050781 248.824219 578.726562 247.742188 C 574.398438 246.660156 570.046875 245.683594 565.675781 244.816406 C 561.300781 243.945312 556.90625 243.183594 552.496094 242.53125 C 548.082031 241.878906 543.660156 241.335938 539.21875 240.898438 C 534.78125 240.460938 530.335938 240.136719 525.882812 239.917969 C 521.425781 239.699219 516.96875 239.589844 512.511719 239.59375 Z M 512.511719 748.097656 C 508.648438 748.097656 504.785156 748 500.929688 747.808594 C 497.070312 747.617188 493.21875 747.332031 489.375 746.953125 C 485.53125 746.574219 481.699219 746.101562 477.878906 745.53125 C 474.058594 744.964844 470.253906 744.304688 466.464844 743.546875 C 462.675781 742.792969 458.910156 741.945312 455.160156 741.007812 C 451.414062 740.066406 447.695312 739.035156 443.996094 737.914062 C 440.300781 736.789062 436.636719 735.578125 433 734.277344 C 429.363281 732.972656 425.757812 731.582031 422.191406 730.105469 C 418.621094 728.625 415.09375 727.058594 411.601562 725.40625 C 408.109375 723.753906 404.660156 722.015625 401.253906 720.195312 C 397.847656 718.371094 394.488281 716.46875 391.175781 714.480469 C 387.863281 712.496094 384.601562 710.429688 381.390625 708.28125 C 378.179688 706.132812 375.023438 703.910156 371.921875 701.609375 C 368.820312 699.304688 365.773438 696.929688 362.789062 694.476562 C 359.804688 692.027344 356.882812 689.503906 354.019531 686.910156 C 351.15625 684.3125 348.363281 681.652344 345.632812 678.917969 C 342.902344 676.1875 340.238281 673.390625 337.644531 670.527344 C 335.050781 667.664062 332.53125 664.738281 330.082031 661.753906 C 327.628906 658.765625 325.253906 655.71875 322.957031 652.617188 C 320.65625 649.515625 318.433594 646.355469 316.285156 643.144531 C 314.140625 639.933594 312.078125 636.667969 310.089844 633.355469 C 308.105469 630.042969 306.203125 626.679688 304.382812 623.273438 C 302.5625 619.867188 300.828125 616.417969 299.175781 612.925781 C 297.527344 609.433594 295.960938 605.902344 294.484375 602.332031 C 293.007812 598.761719 291.617188 595.160156 290.320312 591.523438 C 289.019531 587.886719 287.808594 584.21875 286.6875 580.523438 C 285.566406 576.824219 284.539062 573.101562 283.597656 569.355469 C 282.660156 565.609375 281.816406 561.839844 281.0625 558.050781 C 280.3125 554.261719 279.652344 550.457031 279.085938 546.636719 C 278.519531 542.816406 278.046875 538.984375 277.671875 535.140625 C 277.292969 531.296875 277.007812 527.445312 276.820312 523.585938 C 276.632812 519.726562 276.539062 515.867188 276.539062 512.003906 C 276.539062 508.140625 276.632812 504.28125 276.824219 500.421875 C 277.015625 496.566406 277.300781 492.714844 277.679688 488.871094 C 278.058594 485.023438 278.53125 481.191406 279.101562 477.371094 C 279.667969 473.550781 280.328125 469.746094 281.082031 465.957031 C 281.835938 462.167969 282.683594 458.402344 283.625 454.65625 C 284.5625 450.910156 285.59375 447.1875 286.714844 443.492188 C 287.835938 439.792969 289.050781 436.128906 290.351562 432.492188 C 291.652344 428.855469 293.042969 425.25 294.523438 421.683594 C 296 418.113281 297.566406 414.585938 299.21875 411.09375 C 300.871094 407.601562 302.609375 404.152344 304.429688 400.746094 C 306.25 397.339844 308.15625 393.980469 310.140625 390.667969 C 312.128906 387.355469 314.195312 384.09375 316.339844 380.878906 C 318.488281 377.667969 320.710938 374.511719 323.011719 371.410156 C 325.316406 368.308594 327.691406 365.265625 330.140625 362.277344 C 332.59375 359.292969 335.117188 356.371094 337.710938 353.507812 C 340.304688 350.644531 342.96875 347.847656 345.699219 345.117188 C 348.433594 342.386719 351.230469 339.726562 354.089844 337.132812 C 356.953125 334.539062 359.878906 332.015625 362.863281 329.566406 C 365.851562 327.117188 368.894531 324.742188 372 322.441406 C 375.101562 320.140625 378.257812 317.917969 381.472656 315.769531 C 384.683594 313.625 387.945312 311.558594 391.257812 309.574219 C 394.574219 307.589844 397.933594 305.6875 401.339844 303.863281 C 404.746094 302.042969 408.195312 300.308594 411.6875 298.65625 C 415.179688 297.007812 418.710938 295.441406 422.28125 293.964844 C 425.847656 292.488281 429.453125 291.097656 433.089844 289.796875 C 436.726562 288.496094 440.394531 287.285156 444.089844 286.164062 C 447.785156 285.042969 451.507812 284.011719 455.257812 283.074219 C 459.003906 282.136719 462.769531 281.292969 466.558594 280.539062 C 470.347656 279.785156 474.152344 279.125 477.972656 278.558594 C 481.796875 277.992188 485.628906 277.519531 489.472656 277.140625 C 493.316406 276.765625 497.167969 276.480469 501.027344 276.292969 C 504.882812 276.101562 508.746094 276.007812 512.605469 276.007812 C 516.46875 276.007812 520.332031 276.105469 524.1875 276.292969 C 528.046875 276.484375 531.898438 276.769531 535.742188 277.148438 C 539.585938 277.527344 543.417969 278 547.238281 278.566406 C 551.058594 279.132812 554.863281 279.792969 558.652344 280.546875 C 562.441406 281.300781 566.210938 282.148438 569.957031 283.085938 C 573.703125 284.027344 577.425781 285.054688 581.121094 286.179688 C 584.816406 287.300781 588.484375 288.511719 592.121094 289.8125 C 595.757812 291.113281 599.359375 292.503906 602.929688 293.984375 C 606.5 295.460938 610.027344 297.027344 613.519531 298.679688 C 617.011719 300.332031 620.460938 302.066406 623.867188 303.886719 C 627.273438 305.710938 630.632812 307.613281 633.949219 309.597656 C 637.261719 311.585938 640.523438 313.652344 643.734375 315.796875 C 646.945312 317.945312 650.105469 320.167969 653.207031 322.46875 C 656.308594 324.769531 659.351562 327.144531 662.339844 329.597656 C 665.324219 332.046875 668.25 334.570312 671.109375 337.164062 C 673.972656 339.757812 676.769531 342.421875 679.5 345.152344 C 682.230469 347.882812 684.894531 350.679688 687.488281 353.542969 C 690.082031 356.40625 692.605469 359.328125 695.054688 362.316406 C 697.503906 365.300781 699.878906 368.347656 702.179688 371.449219 C 704.480469 374.550781 706.707031 377.710938 708.851562 380.921875 C 710.996094 384.132812 713.0625 387.394531 715.050781 390.707031 C 717.035156 394.023438 718.9375 397.382812 720.757812 400.789062 C 722.578125 404.195312 724.316406 407.644531 725.96875 411.136719 C 727.617188 414.628906 729.183594 418.160156 730.660156 421.726562 C 732.140625 425.296875 733.53125 428.898438 734.832031 432.535156 C 736.132812 436.171875 737.34375 439.839844 738.464844 443.535156 C 739.585938 447.234375 740.617188 450.957031 741.554688 454.703125 C 742.492188 458.449219 743.339844 462.21875 744.09375 466.003906 C 744.847656 469.792969 745.507812 473.597656 746.074219 477.421875 C 746.640625 481.242188 747.113281 485.074219 747.492188 488.917969 C 747.871094 492.761719 748.152344 496.613281 748.34375 500.472656 C 748.53125 504.328125 748.628906 508.191406 748.628906 512.054688 C 748.628906 515.917969 748.53125 519.777344 748.34375 523.636719 C 748.152344 527.496094 747.867188 531.347656 747.488281 535.195312 C 747.109375 539.039062 746.636719 542.871094 746.070312 546.695312 C 745.503906 550.515625 744.84375 554.320312 744.089844 558.113281 C 743.335938 561.902344 742.488281 565.667969 741.550781 569.417969 C 740.613281 573.164062 739.582031 576.886719 738.460938 580.585938 C 737.335938 584.285156 736.125 587.949219 734.824219 591.589844 C 733.523438 595.226562 732.132812 598.832031 730.652344 602.398438 C 729.171875 605.96875 727.609375 609.5 725.957031 612.992188 C 724.304688 616.484375 722.566406 619.9375 720.746094 623.34375 C 718.921875 626.75 717.019531 630.109375 715.03125 633.425781 C 713.046875 636.738281 710.976562 640.003906 708.832031 643.214844 C 706.683594 646.425781 704.460938 649.585938 702.15625 652.6875 C 699.855469 655.792969 697.480469 658.835938 695.027344 661.824219 C 692.574219 664.808594 690.050781 667.734375 687.457031 670.597656 C 684.863281 673.457031 682.199219 676.253906 679.464844 678.988281 C 676.734375 681.71875 673.933594 684.382812 671.070312 686.976562 C 668.207031 689.570312 665.285156 692.09375 662.296875 694.542969 C 659.308594 696.996094 656.261719 699.371094 653.160156 701.671875 C 650.054688 703.972656 646.898438 706.195312 643.683594 708.339844 C 640.472656 710.488281 637.207031 712.554688 633.894531 714.539062 C 630.578125 716.523438 627.21875 718.429688 623.808594 720.25 C 620.402344 722.070312 616.949219 723.804688 613.457031 725.457031 C 609.964844 727.109375 606.433594 728.671875 602.863281 730.148438 C 599.292969 731.628906 595.6875 733.015625 592.050781 734.316406 C 588.410156 735.617188 584.742188 736.828125 581.046875 737.949219 C 577.347656 739.070312 573.625 740.101562 569.878906 741.039062 C 566.128906 741.976562 562.359375 742.820312 558.570312 743.574219 C 554.78125 744.328125 550.972656 744.984375 547.152344 745.550781 C 543.332031 746.117188 539.496094 746.589844 535.652344 746.96875 C 531.804688 747.34375 527.953125 747.628906 524.09375 747.816406 C 520.234375 748.003906 516.375 748.097656 512.511719 748.097656 Z M 512.511719 748.097656 " fill-opacity="1" fill-rule="nonzero"/><path fill="#000000" d="M 899.386719 159.1875 C 899.386719 160.5625 899.320312 161.9375 899.183594 163.308594 C 899.050781 164.675781 898.847656 166.035156 898.578125 167.386719 C 898.3125 168.734375 897.976562 170.070312 897.578125 171.386719 C 897.179688 172.703125 896.714844 173.996094 896.1875 175.269531 C 895.660156 176.539062 895.074219 177.785156 894.425781 178.996094 C 893.777344 180.210938 893.070312 181.390625 892.304688 182.535156 C 891.539062 183.679688 890.722656 184.78125 889.847656 185.847656 C 888.976562 186.910156 888.050781 187.929688 887.078125 188.902344 C 886.105469 189.875 885.085938 190.800781 884.023438 191.671875 C 882.957031 192.546875 881.855469 193.363281 880.710938 194.128906 C 879.566406 194.894531 878.386719 195.601562 877.171875 196.25 C 875.960938 196.898438 874.714844 197.484375 873.445312 198.011719 C 872.171875 198.539062 870.878906 199.003906 869.5625 199.402344 C 868.246094 199.800781 866.910156 200.136719 865.5625 200.402344 C 864.210938 200.671875 862.851562 200.875 861.484375 201.007812 C 860.113281 201.144531 858.738281 201.210938 857.363281 201.210938 C 855.988281 201.210938 854.613281 201.144531 853.246094 201.007812 C 851.875 200.875 850.515625 200.671875 849.164062 200.402344 C 847.816406 200.136719 846.480469 199.800781 845.164062 199.402344 C 843.847656 199.003906 842.554688 198.539062 841.28125 198.011719 C 840.011719 197.484375 838.769531 196.898438 837.554688 196.25 C 836.339844 195.601562 835.160156 194.894531 834.015625 194.128906 C 832.871094 193.363281 831.769531 192.546875 830.703125 191.671875 C 829.640625 190.800781 828.621094 189.875 827.648438 188.902344 C 826.675781 187.929688 825.753906 186.910156 824.878906 185.847656 C 824.003906 184.78125 823.1875 183.679688 822.421875 182.535156 C 821.65625 181.390625 820.949219 180.210938 820.300781 178.996094 C 819.652344 177.785156 819.066406 176.539062 818.539062 175.269531 C 818.011719 173.996094 817.550781 172.703125 817.148438 171.386719 C 816.75 170.070312 816.417969 168.734375 816.148438 167.386719 C 815.878906 166.035156 815.675781 164.675781 815.542969 163.308594 C 815.40625 161.9375 815.339844 160.5625 815.339844 159.1875 C 815.339844 157.8125 815.40625 156.4375 815.542969 155.070312 C 815.675781 153.699219 815.878906 152.339844 816.148438 150.988281 C 816.417969 149.640625 816.75 148.304688 817.148438 146.988281 C 817.550781 145.671875 818.011719 144.378906 818.539062 143.105469 C 819.066406 141.835938 819.652344 140.59375 820.300781 139.378906 C 820.949219 138.164062 821.65625 136.984375 822.421875 135.839844 C 823.1875 134.695312 824.007812 133.59375 824.878906 132.527344 C 825.753906 131.464844 826.675781 130.445312 827.648438 129.472656 C 828.621094 128.5 829.640625 127.578125 830.703125 126.703125 C 831.769531 125.832031 832.871094 125.011719 834.015625 124.246094 C 835.160156 123.480469 836.339844 122.773438 837.554688 122.125 C 838.769531 121.476562 840.011719 120.890625 841.28125 120.363281 C 842.554688 119.835938 843.847656 119.375 845.164062 118.972656 C 846.480469 118.574219 847.816406 118.242188 849.164062 117.972656 C 850.515625 117.703125 851.875 117.5 853.246094 117.367188 C 854.613281 117.230469 855.988281 117.164062 857.363281 117.164062 C 858.738281 117.164062 860.113281 117.230469 861.484375 117.367188 C 862.851562 117.5 864.210938 117.703125 865.5625 117.972656 C 866.910156 118.242188 868.246094 118.574219 869.5625 118.972656 C 870.878906 119.375 872.171875 119.835938 873.445312 120.363281 C 874.714844 120.890625 875.960938 121.476562 877.171875 122.125 C 878.386719 122.773438 879.566406 123.480469 880.710938 124.246094 C 881.855469 125.011719 882.957031 125.832031 884.023438 126.703125 C 885.085938 127.578125 886.105469 128.5 887.078125 129.472656 C 888.050781 130.445312 888.976562 131.464844 889.847656 132.527344 C 890.722656 133.59375 891.539062 134.695312 892.304688 135.839844 C 893.070312 136.984375 893.777344 138.164062 894.425781 139.378906 C 895.074219 140.59375 895.660156 141.835938 896.1875 143.105469 C 896.714844 144.378906 897.179688 145.671875 897.578125 146.988281 C 897.976562 148.304688 898.3125 149.640625 898.578125 150.988281 C 898.847656 152.339844 899.050781 153.699219 899.183594 155.070312 C 899.320312 156.4375 899.386719 157.8125 899.386719 159.1875 Z M 899.386719 159.1875 " fill-opacity="1" fill-rule="nonzero"/></svg>